<svg xmlns="http://www.w3.org/2000/svg" xmlns:xlink="http://www.w3.org/1999/xlink" version="1.1" width="1000" height="1000" viewBox="0 0 1000 1000" xml:space="preserve">
<desc>Created with Fabric.js 3.5.0</desc>
<defs>
</defs>
<rect x="0" y="0" width="100%" height="100%" fill="rgba(255,255,255,0)"/>
<g transform="matrix(0.8237 0 0 0.8106 690.6514 353.8091)" id="419327">
<g style="" vector-effect="non-scaling-stroke">
		<g transform="matrix(1 0 0 1 0.0127 -0.9418)" id="Layer_2">
<path style="stroke: none; stroke-width: 1; stroke-dasharray: none; stroke-linecap: butt; stroke-dashoffset: 0; stroke-linejoin: miter; stroke-miterlimit: 4; is-custom-font: none; font-file-url: none; fill: rgb(204,233,255); fill-rule: nonzero; opacity: 0.19;" transform=" translate(-400.0127, -299.0583)" d="M 501.36 157.07 c 66.44 -63.95 176.02 -32.22 196.55 57.21 c 0.29 1.28 0.58 2.58 0.86 3.89 c 27.7 131.12 -133.19 318.27 -327.47 274.62 c -194.28 -43.65 -306.25 -240.9 -264.45 -333.03 c 41.8 -92.13 133.05 -74.72 235.29 18.64 C 399.89 231.16 460 196.88 501.36 157.07 z" stroke-linecap="round"/>
</g>
		<g transform="matrix(1 0 0 1 17.5205 56.1658)" id="Layer_2">
<path style="stroke: none; stroke-width: 1; stroke-dasharray: none; stroke-linecap: butt; stroke-dashoffset: 0; stroke-linejoin: miter; stroke-miterlimit: 4; is-custom-font: none; font-file-url: none; fill: rgb(204,233,255); fill-rule: nonzero; opacity: 0.39;" transform=" translate(-417.5205, -356.1658)" d="M 569.16 317.46 c 56.4 -58.46 102.89 -16.19 123.87 61.87 c 0.3 1.12 0.6 2.25 0.88 3.4 c 28.66 114.53 -252.41 159.48 -424.86 127.38 C 96.61 478.02 145.5 305.97 145.5 305.97 c 63.79 -202.67 165.37 -88.65 258.42 -9.79 C 456.49 340.73 534.05 353.86 569.16 317.46 z" stroke-linecap="round"/>
</g>
		<g transform="matrix(1 0 0 1 31.635 117.85)" id="Layer_2">
<rect style="stroke: none; stroke-width: 1; stroke-dasharray: none; stroke-linecap: butt; stroke-dashoffset: 0; stroke-linejoin: miter; stroke-miterlimit: 4; is-custom-font: none; font-file-url: none; fill: rgb(242,242,243); fill-rule: nonzero; opacity: 1;" x="-29.855" y="-11.59" rx="0" ry="0" width="59.71" height="23.18"/>
</g>
		<g transform="matrix(1 0 0 1 31.64 1.655)" id="Layer_2">
<path style="stroke: none; stroke-width: 1; stroke-dasharray: none; stroke-linecap: butt; stroke-dashoffset: 0; stroke-linejoin: miter; stroke-miterlimit: 4; is-custom-font: none; font-file-url: none; fill: rgb(247,247,247); fill-rule: nonzero; opacity: 1;" transform=" translate(-431.64, -301.655)" d="M 287.04 197.05 h 289.2 c 5.99 0 10.85 4.86 10.85 10.85 v 187.51 c 0 5.99 -4.86 10.85 -10.85 10.85 h -289.2 c -5.99 0 -10.85 -4.86 -10.85 -10.85 V 207.9 C 276.19 201.91 281.05 197.05 287.04 197.05 z" stroke-linecap="round"/>
</g>
		<g transform="matrix(1 0 0 1 31.635 -10.975)" id="Layer_2">
<path style="stroke: none; stroke-width: 1; stroke-dasharray: none; stroke-linecap: butt; stroke-dashoffset: 0; stroke-linejoin: miter; stroke-miterlimit: 4; is-custom-font: none; font-file-url: none; fill: rgb(8,73,112); fill-rule: nonzero; opacity: 1;" transform=" translate(-431.635, -289.025)" d="M 587.08 206.23 c 0 -5.07 -4.11 -9.18 -9.18 -9.18 H 285.37 c -5.07 0 -9.18 4.11 -9.18 9.18 V 381 h 310.89 V 206.23 z" stroke-linecap="round"/>
</g>
		<g transform="matrix(1 0 0 1 31.64 129.765)" id="Layer_2">
<path style="stroke: none; stroke-width: 1; stroke-dasharray: none; stroke-linecap: butt; stroke-dashoffset: 0; stroke-linejoin: miter; stroke-miterlimit: 4; is-custom-font: none; font-file-url: none; fill: rgb(211,211,211); fill-rule: nonzero; opacity: 1;" transform=" translate(-431.64, -429.765)" d="M 493.84 434.13 H 369.43 c -1.58 0 -2.87 -1.28 -2.87 -2.87 v -2.99 c 0 -1.58 1.28 -2.87 2.87 -2.87 h 124.42 c 1.58 0 2.87 1.28 2.87 2.87 v 2.99 C 496.71 432.85 495.43 434.13 493.84 434.13 z" stroke-linecap="round"/>
</g>
		<g transform="matrix(1 0 0 1 32.25 -10.825)" id="Layer_2">
<rect style="stroke: none; stroke-width: 1; stroke-dasharray: none; stroke-linecap: butt; stroke-dashoffset: 0; stroke-linejoin: miter; stroke-miterlimit: 4; is-custom-font: none; font-file-url: none; fill: rgb(204,233,255); fill-rule: nonzero; opacity: 1;" x="-143.76" y="-77.595" rx="0" ry="0" width="287.52" height="155.19"/>
</g>
		<g transform="matrix(1 0 0 1 -47.42 -84.885)" id="Layer_2">
<path style="stroke: none; stroke-width: 1; stroke-dasharray: none; stroke-linecap: butt; stroke-dashoffset: 0; stroke-linejoin: miter; stroke-miterlimit: 4; is-custom-font: none; font-file-url: none; fill: rgb(42,148,244); fill-rule: nonzero; opacity: 1;" transform=" translate(-352.58, -215.115)" d="M 451.46 289.18 H 253.69 c -5.91 0 -10.69 -4.79 -10.69 -10.69 V 151.74 c 0 -5.91 4.79 -10.69 10.69 -10.69 h 197.78 c 5.91 0 10.69 4.79 10.69 10.69 v 126.74 C 462.15 284.39 457.37 289.18 451.46 289.18 z" stroke-linecap="round"/>
</g>
		<g transform="matrix(1 0 0 1 129.09 31.925)" id="Layer_2">
<path style="stroke: none; stroke-width: 1; stroke-dasharray: none; stroke-linecap: butt; stroke-dashoffset: 0; stroke-linejoin: miter; stroke-miterlimit: 4; is-custom-font: none; font-file-url: none; fill: rgb(11,72,112); fill-rule: nonzero; opacity: 1;" transform=" translate(-529.09, -331.925)" d="M 598.83 386.61 H 459.36 c -6.17 0 -11.18 -5.01 -11.18 -11.18 v -87.01 c 0 -6.17 5.01 -11.18 11.18 -11.18 h 139.46 c 6.17 0 11.18 5.01 11.18 11.18 v 87.01 C 610.01 381.61 605 386.61 598.83 386.61 z" stroke-linecap="round"/>
</g>
		<g transform="matrix(1 0 0 1 -176.74 16.85)" id="Layer_2">
<path style="stroke: none; stroke-width: 1; stroke-dasharray: none; stroke-linecap: butt; stroke-dashoffset: 0; stroke-linejoin: miter; stroke-miterlimit: 4; is-custom-font: none; font-file-url: none; fill: rgb(255,190,85); fill-rule: nonzero; opacity: 1;" transform=" translate(-223.26, -316.85)" d="M 223.24 288.12 c 0 0 -11.46 26.86 -11.46 41.41 c 0 14.54 19.66 16.05 19.66 16.05 l 3.3 -7.89 c 0 0 -14.25 -2.55 -12.55 -19.56 L 223.24 288.12 z" stroke-linecap="round"/>
</g>
		<g transform="matrix(1 0 0 1 -147.33 169.05)" id="Layer_2">
<ellipse style="stroke: none; stroke-width: 1; stroke-dasharray: none; stroke-linecap: butt; stroke-dashoffset: 0; stroke-linejoin: miter; stroke-miterlimit: 4; is-custom-font: none; font-file-url: none; fill: rgb(211,211,211); fill-rule: nonzero; opacity: 1;" cx="0" cy="0" rx="39.57" ry="6.81"/>
</g>
		<g transform="matrix(1 0 0 1 -154.015 -23.5389)" id="Layer_2">
<path style="stroke: none; stroke-width: 1; stroke-dasharray: none; stroke-linecap: butt; stroke-dashoffset: 0; stroke-linejoin: miter; stroke-miterlimit: 4; is-custom-font: none; font-file-url: none; fill: rgb(254,227,202); fill-rule: nonzero; opacity: 1;" transform=" translate(-245.985, -276.4611)" d="M 241.19 271.39 v 6.56 c 0 0 1.96 3.34 4.6 3.57 c 2.64 0.23 4.99 -2.87 4.99 -2.87 v -6.79 L 241.19 271.39 z" stroke-linecap="round"/>
</g>
		<g transform="matrix(1 0 0 1 -153.9605 -39.4218)" id="Layer_2">
<path style="stroke: none; stroke-width: 1; stroke-dasharray: none; stroke-linecap: butt; stroke-dashoffset: 0; stroke-linejoin: miter; stroke-miterlimit: 4; is-custom-font: none; font-file-url: none; fill: rgb(254,227,202); fill-rule: nonzero; opacity: 1;" transform=" translate(-246.0395, -260.5782)" d="M 257.68 258.92 c -0.03 0.38 -0.06 0.76 -0.1 1.15 c -0.1 0.98 -0.23 1.98 -0.41 2.98 c -0.01 0.04 -0.01 0.07 -0.02 0.1 c -0.88 4.83 -0.64 9.28 -7.12 11.11 c -9.87 2.79 -13.11 -4.83 -14.49 -9.67 c -0.15 -0.54 -0.29 -1.13 -0.41 -1.77 c 0 -0.02 -0.01 -0.05 -0.02 -0.08 c -0.13 -0.71 -0.25 -1.48 -0.35 -2.26 c -0.07 -0.58 -0.14 -1.17 -0.19 -1.77 c -0.14 -1.44 -0.23 -2.89 -0.29 -4.18 c -0.14 -2.94 1.62 -5.64 4.37 -6.69 c 3.96 -1.52 9.98 -2.73 15.68 0.5 c 2.11 1.19 3.43 3.4 3.47 5.82 C 257.82 255.52 257.8 257.16 257.68 258.92 z" stroke-linecap="round"/>
</g>
		<g transform="matrix(1 0 0 1 -153.2925 -42.7118)" id="Layer_2">
<path style="stroke: none; stroke-width: 1; stroke-dasharray: none; stroke-linecap: butt; stroke-dashoffset: 0; stroke-linejoin: miter; stroke-miterlimit: 4; is-custom-font: none; font-file-url: none; fill: rgb(8,73,112); fill-rule: nonzero; opacity: 1;" transform=" translate(-246.7075, -257.2882)" d="M 236.62 270.07 c 0 0 -2.95 -5.65 -4.46 -10.83 c -1.38 -4.75 -1.22 -8.29 -0.11 -10.83 c 1.1 -2.54 3.76 -5.34 7.89 -6.34 c 4.13 -0.99 9.55 -0.9 12.29 -1.53 c 4.64 -1.08 7.59 0.24 8.9 1.79 c 2.38 2.82 0.84 8.98 -3.61 10.01 c 0 0 -2.8 0.79 -1.91 3.06 c 0.91 2.34 -0.48 4.5 -0.48 4.5 s -1.01 -2.38 -2.91 -2.21 c 0 0 -3.13 0 -2.63 4.7 c 0.41 3.85 2.62 4.27 3.99 3.66 c 0 0 -0.33 2.81 -1.89 4.25 c -1.02 0.94 -3.52 2.98 -5.36 3.54 C 243.79 274.58 239.13 275.6 236.62 270.07 z" stroke-linecap="round"/>
</g>
		<g transform="matrix(1 0 0 1 -159.9192 165.1551)" id="Layer_2">
<path style="stroke: none; stroke-width: 1; stroke-dasharray: none; stroke-linecap: butt; stroke-dashoffset: 0; stroke-linejoin: miter; stroke-miterlimit: 4; is-custom-font: none; font-file-url: none; fill: rgb(8,73,112); fill-rule: nonzero; opacity: 1;" transform=" translate(-240.0808, -465.1551)" d="M 233.12 471.43 c 0.74 0.1 1.63 0.15 2.38 -0.03 l 1.12 -0.36 l 1.84 -0.55 c 0 0 6.55 -1.35 8.89 -3.62 c 2.34 -2.27 2.28 -4.1 -1.36 -5.32 c -3.64 -1.22 -7.22 -1.98 -9.16 -2.76 c 0 0 -5.83 0.49 -5.51 3.61 c -0.07 2.9 -0.25 4.43 0.14 7.36 C 231.57 470.63 232.25 471.31 233.12 471.43 z" stroke-linecap="round"/>
</g>
		<g transform="matrix(1 0 0 1 -164.27 157.82)" id="Layer_2">
<path style="stroke: none; stroke-width: 1; stroke-dasharray: none; stroke-linecap: butt; stroke-dashoffset: 0; stroke-linejoin: miter; stroke-miterlimit: 4; is-custom-font: none; font-file-url: none; fill: rgb(254,227,202); fill-rule: nonzero; opacity: 1;" transform=" translate(-235.73, -457.82)" d="M 238.72 454.78 v 6.13 c -1.92 0.45 -3.99 0.67 -5.61 -0.09 l -0.37 -6.5 L 238.72 454.78 z" stroke-linecap="round"/>
</g>
		<g transform="matrix(1 0 0 1 -165.2839 111.8703)" id="Layer_2">
<path style="stroke: none; stroke-width: 1; stroke-dasharray: none; stroke-linecap: butt; stroke-dashoffset: 0; stroke-linejoin: miter; stroke-miterlimit: 4; is-custom-font: none; font-file-url: none; fill: rgb(11,83,140); fill-rule: nonzero; opacity: 1;" transform=" translate(-234.7161, -411.8703)" d="M 244.03 449.79 c -0.24 -7.97 1.17 -22.4 0.91 -33.64 c -0.28 -12.35 -1.13 -29.69 -1.73 -41.47 h -0.01 c -0.24 -4.71 -0.45 -8.27 -0.54 -9.73 l -18.2 0.24 c 0.04 0.73 0.23 4.23 0.53 9.11 c 0.79 13.4 2.27 37.22 3.14 42.57 c 0.89 5.49 0.49 23.5 0.2 32.92 c 0 0 -0.34 9.09 0.42 9 c 0.76 -0.09 14.86 0.34 14.86 -0.97 S 244.03 449.79 244.03 449.79 z" stroke-linecap="round"/>
</g>
		<g transform="matrix(1 0 0 1 -166.16 70.009)" id="Layer_2">
<path style="stroke: none; stroke-width: 1; stroke-dasharray: none; stroke-linecap: butt; stroke-dashoffset: 0; stroke-linejoin: miter; stroke-miterlimit: 4; is-custom-font: none; font-file-url: none; fill: rgb(10,74,114); fill-rule: nonzero; opacity: 1;" transform=" translate(-233.84, -370.009)" d="M 242.67 364.95 l -18.2 0.24 c 0.04 0.73 0.23 4.23 0.53 9.11 c 6.18 0.76 12.61 1.08 18.21 0.38 C 242.97 369.96 242.76 366.4 242.67 364.95 z" stroke-linecap="round"/>
</g>
		<g transform="matrix(1 0 0 1 -137.3192 165.1551)" id="Layer_2">
<path style="stroke: none; stroke-width: 1; stroke-dasharray: none; stroke-linecap: butt; stroke-dashoffset: 0; stroke-linejoin: miter; stroke-miterlimit: 4; is-custom-font: none; font-file-url: none; fill: rgb(8,73,112); fill-rule: nonzero; opacity: 1;" transform=" translate(-262.6808, -465.1551)" d="M 255.72 471.43 c 0.74 0.1 1.63 0.15 2.38 -0.03 l 1.12 -0.36 l 1.84 -0.55 c 0 0 6.55 -1.35 8.89 -3.62 c 2.34 -2.27 2.28 -4.1 -1.36 -5.32 c -3.64 -1.22 -7.22 -1.98 -9.16 -2.76 c 0 0 -5.83 0.49 -5.51 3.61 c -0.07 2.9 -0.25 4.43 0.14 7.36 C 254.17 470.63 254.85 471.31 255.72 471.43 z" stroke-linecap="round"/>
</g>
		<g transform="matrix(1 0 0 1 -141.67 157.82)" id="Layer_2">
<path style="stroke: none; stroke-width: 1; stroke-dasharray: none; stroke-linecap: butt; stroke-dashoffset: 0; stroke-linejoin: miter; stroke-miterlimit: 4; is-custom-font: none; font-file-url: none; fill: rgb(254,227,202); fill-rule: nonzero; opacity: 1;" transform=" translate(-258.33, -457.82)" d="M 261.32 454.78 v 6.13 c -1.92 0.45 -3.99 0.67 -5.61 -0.09 l -0.37 -6.5 L 261.32 454.78 z" stroke-linecap="round"/>
</g>
		<g transform="matrix(1 0 0 1 -142.6839 111.8703)" id="Layer_2">
<path style="stroke: none; stroke-width: 1; stroke-dasharray: none; stroke-linecap: butt; stroke-dashoffset: 0; stroke-linejoin: miter; stroke-miterlimit: 4; is-custom-font: none; font-file-url: none; fill: rgb(11,83,140); fill-rule: nonzero; opacity: 1;" transform=" translate(-257.3161, -411.8703)" d="M 266.63 449.79 c -0.24 -7.97 1.17 -22.4 0.91 -33.64 c -0.28 -12.35 -1.13 -29.69 -1.73 -41.47 h -0.01 c -0.24 -4.71 -0.45 -8.27 -0.54 -9.73 l -18.2 0.24 c 0.04 0.73 0.23 4.23 0.53 9.11 c 0.79 13.4 2.27 37.22 3.14 42.57 c 0.89 5.49 0.49 23.5 0.2 32.92 c 0 0 -0.34 9.09 0.42 9 c 0.76 -0.09 14.86 0.34 14.86 -0.97 S 266.63 449.79 266.63 449.79 z" stroke-linecap="round"/>
</g>
		<g transform="matrix(1 0 0 1 -143.55 70.009)" id="Layer_2">
<path style="stroke: none; stroke-width: 1; stroke-dasharray: none; stroke-linecap: butt; stroke-dashoffset: 0; stroke-linejoin: miter; stroke-miterlimit: 4; is-custom-font: none; font-file-url: none; fill: rgb(10,74,114); fill-rule: nonzero; opacity: 1;" transform=" translate(-256.45, -370.009)" d="M 265.28 364.95 l -18.2 0.24 c 0.04 0.73 0.23 4.23 0.53 9.11 c 6.18 0.76 12.61 1.08 18.21 0.38 C 265.57 369.96 265.36 366.4 265.28 364.95 z" stroke-linecap="round"/>
</g>
		<g transform="matrix(1 0 0 1 -154.4962 23.5781)" id="Layer_2">
<path style="stroke: none; stroke-width: 1; stroke-dasharray: none; stroke-linecap: butt; stroke-dashoffset: 0; stroke-linejoin: miter; stroke-miterlimit: 4; is-custom-font: none; font-file-url: none; fill: rgb(255,190,85); fill-rule: nonzero; opacity: 1;" transform=" translate(-245.5038, -323.5781)" d="M 270.2 367.06 c -16.47 4.15 -32.91 4.16 -49.34 0 c -0.06 -4.54 -0.13 -19.18 0.03 -34.65 c 0.01 -0.71 0.02 -1.41 0.02 -2.12 c 0 -0.17 0 -0.34 0.01 -0.5 c 0.01 -0.69 0.02 -1.38 0.03 -2.08 c 0 -0.42 0.01 -0.83 0.02 -1.24 c 0 -0.2 0.01 -0.4 0.01 -0.6 c 0 -0.23 0.01 -0.46 0.01 -0.7 c 0.01 -0.43 0.01 -0.86 0.02 -1.29 c 0 -0.21 0.01 -0.43 0.01 -0.64 c 0 -0.22 0.01 -0.43 0.01 -0.65 c 0.01 -0.42 0.02 -0.83 0.02 -1.24 c 0.01 -0.43 0.01 -0.86 0.02 -1.29 c 0.01 -0.25 0.01 -0.49 0.02 -0.74 c 0 -0.19 0.01 -0.37 0.01 -0.56 c 0.02 -0.43 0.02 -0.86 0.03 -1.29 c 0.01 -0.26 0.01 -0.52 0.02 -0.78 c 0 -0.15 0.01 -0.3 0.01 -0.45 c 0.01 -0.39 0.02 -0.79 0.03 -1.18 c 0.01 -0.2 0.02 -0.39 0.02 -0.58 v -0.03 c 0.01 -0.25 0.01 -0.5 0.02 -0.74 v -0.04 c 0.35 -13.27 0.97 -24.09 2.02 -25.54 c 1.22 -1.68 4.92 -3.87 8.73 -5.93 c 3.81 -2.07 7.75 -4.01 9.45 -5.22 c 0 0 3.93 1.62 8.71 0.47 c 0 0 0.3 -0.05 0.48 -0.28 l 0.53 0.35 c 4.17 2.56 13.76 7.12 16.02 10.22 c 1.05 1.45 1.76 12.47 2.23 25.93 c 0.03 0.85 0.06 1.71 0.09 2.58 c 0 0.15 0.01 0.3 0.01 0.45 c 0.01 0.26 0.02 0.52 0.02 0.78 c 0.02 0.43 0.03 0.85 0.04 1.29 c 0.01 0.19 0.01 0.37 0.02 0.56 c 0.01 0.25 0.02 0.49 0.02 0.74 c 0.01 0.43 0.03 0.86 0.04 1.29 c 0.01 0.41 0.02 0.82 0.03 1.24 c 0.01 0.22 0.01 0.43 0.02 0.65 c 0 0.21 0.01 0.43 0.02 0.64 c 0.01 0.43 0.02 0.86 0.03 1.29 c 0.01 0.23 0.01 0.46 0.02 0.7 c 0 0.2 0.01 0.4 0.01 0.6 c 0.01 0.41 0.02 0.83 0.03 1.24 c 0.02 0.69 0.03 1.39 0.05 2.08 c 0 0.17 0.01 0.34 0.01 0.5 c 0.02 0.71 0.03 1.42 0.04 2.12 C 270.19 347.93 270.25 362.56 270.2 367.06 z" stroke-linecap="round"/>
</g>
		<g transform="matrix(1 0 0 1 -93.3494 -13.9477)" id="Layer_2">
<path style="stroke: none; stroke-width: 1; stroke-dasharray: none; stroke-linecap: butt; stroke-dashoffset: 0; stroke-linejoin: miter; stroke-miterlimit: 4; is-custom-font: none; font-file-url: none; fill: rgb(254,227,202); fill-rule: nonzero; opacity: 1;" transform=" translate(-306.6505, -286.0524)" d="M 313.5 281.84 c -0.58 -0.04 -1.78 1.63 -2.83 3.26 c -0.06 -0.03 -0.12 -0.07 -0.18 -0.1 c 1.17 -2.36 3.04 -6.49 1.77 -6.43 c -0.83 0.04 -2.54 3.51 -3.51 5.64 c -0.12 -0.05 -0.23 -0.09 -0.35 -0.13 c 1.11 -2.55 3.13 -7.56 1.69 -7.42 c -0.96 0.09 -2.77 4.48 -3.64 6.75 c -0.11 -0.03 -0.21 -0.06 -0.31 -0.1 c 0.86 -2.2 2.35 -6.47 0.92 -6.33 c -1.3 0.12 -3.23 6.83 -3.23 6.83 l 0 0 l -1.03 2.41 c 0 0 -0.88 -0.24 -0.97 -2.2 c -0.1 -1.96 -1.15 -3.14 -1.64 -0.8 c -0.55 2.64 -0.22 5.12 -0.66 6.95 c -0.2 0.83 0.02 1.69 0.32 2.39 c 0.35 0.81 0.93 1.51 1.65 2.03 l 0 0 c 1.92 1.39 4.59 1.06 6.09 -0.77 c 1.74 -2.1 3.74 -4.91 4.31 -7.23 v 0 C 313.15 284.5 314.5 281.9 313.5 281.84 z" stroke-linecap="round"/>
</g>
		<g transform="matrix(1 0 0 1 -113.8389 6.2016)" id="Layer_2">
<path style="stroke: none; stroke-width: 1; stroke-dasharray: none; stroke-linecap: butt; stroke-dashoffset: 0; stroke-linejoin: miter; stroke-miterlimit: 4; is-custom-font: none; font-file-url: none; fill: rgb(255,190,85); fill-rule: nonzero; opacity: 1;" transform=" translate(-286.1612, -306.2016)" d="M 306.33 294.85 c 0 0 -6.09 19.45 -17.59 28.31 c -1.84 1.42 -4.41 1.94 -6.59 1.13 c -3.73 -1.39 -9.38 -3.63 -12.66 -8.05 c 0 0 -5.96 -20.22 -2.32 -28.51 c 0 0 6.53 14.06 17.24 22.72 c 0.03 0.03 0.07 0.06 0.1 0.08 c 0.16 0.13 0.31 0.25 0.47 0.37 c 0 0 0.2 -0.16 0.54 -0.43 c 0.03 -0.03 0.07 -0.05 0.1 -0.08 c 1.51 -1.22 5.37 -4.42 7.73 -7.19 c 2.98 -3.5 6.43 -10.8 6.43 -10.8 C 301.62 293.95 303.77 294.83 306.33 294.85 z" stroke-linecap="round"/>
</g>
		<g transform="matrix(1 0 0 1 -114.5979 13.6756)" id="Layer_2">
<path style="stroke: none; stroke-width: 1; stroke-dasharray: none; stroke-linecap: butt; stroke-dashoffset: 0; stroke-linejoin: miter; stroke-miterlimit: 4; is-custom-font: none; font-file-url: none; fill: rgb(253,189,86); fill-rule: nonzero; opacity: 1;" transform=" translate(-285.4021, -313.6756)" d="M 286 316.89 c -0.18 0.05 -0.36 0.01 -0.5 -0.1 c -0.08 -0.07 -0.15 -0.16 -0.18 -0.28 c -0.54 -1.89 -0.82 -3.95 -0.91 -6.07 c 0.03 0.03 0.07 0.06 0.1 0.08 c 0.16 0.13 0.31 0.25 0.47 0.37 c 0 0 0.2 -0.16 0.54 -0.43 c 0.08 2.01 0.34 3.96 0.85 5.74 C 286.46 316.51 286.29 316.81 286 316.89 z" stroke-linecap="round"/>
</g>
		<g transform="matrix(1 0 0 1 108.155 -78.73)" id="Layer_2">
<path style="stroke: none; stroke-width: 1; stroke-dasharray: none; stroke-linecap: butt; stroke-dashoffset: 0; stroke-linejoin: miter; stroke-miterlimit: 4; is-custom-font: none; font-file-url: none; fill: rgb(255,190,85); fill-rule: nonzero; opacity: 1;" transform=" translate(-508.155, -221.27)" d="M 564.79 187.85 H 451.52 c -4.37 0 -7.92 3.55 -7.92 7.92 v 34.91 c 0 4.37 3.55 7.92 7.92 7.92 h 94.11 l -7.56 16.09 l 23.4 -16.09 h 3.32 c 4.37 0 7.92 -3.55 7.92 -7.92 v -34.91 C 572.71 191.4 569.17 187.85 564.79 187.85 z" stroke-linecap="round"/>
</g>
		<g transform="matrix(1 0 0 1 107.685 -96.39)" id="Layer_2">
<rect style="stroke: none; stroke-width: 1; stroke-dasharray: none; stroke-linecap: butt; stroke-dashoffset: 0; stroke-linejoin: miter; stroke-miterlimit: 4; is-custom-font: none; font-file-url: none; fill: rgb(255,255,255); fill-rule: nonzero; opacity: 1;" x="-53.835" y="-1.59" rx="0" ry="0" width="107.67" height="3.18"/>
</g>
		<g transform="matrix(1 0 0 1 107.685 -87.49)" id="Layer_2">
<rect style="stroke: none; stroke-width: 1; stroke-dasharray: none; stroke-linecap: butt; stroke-dashoffset: 0; stroke-linejoin: miter; stroke-miterlimit: 4; is-custom-font: none; font-file-url: none; fill: rgb(255,255,255); fill-rule: nonzero; opacity: 1;" x="-53.835" y="-1.59" rx="0" ry="0" width="107.67" height="3.18"/>
</g>
		<g transform="matrix(1 0 0 1 107.685 -77.8)" id="Layer_2">
<rect style="stroke: none; stroke-width: 1; stroke-dasharray: none; stroke-linecap: butt; stroke-dashoffset: 0; stroke-linejoin: miter; stroke-miterlimit: 4; is-custom-font: none; font-file-url: none; fill: rgb(255,255,255); fill-rule: nonzero; opacity: 1;" x="-53.835" y="-1.59" rx="0" ry="0" width="107.67" height="3.18"/>
</g>
		<g transform="matrix(1 0 0 1 -31.935 52.89)" id="Layer_2">
<path style="stroke: none; stroke-width: 1; stroke-dasharray: none; stroke-linecap: butt; stroke-dashoffset: 0; stroke-linejoin: miter; stroke-miterlimit: 4; is-custom-font: none; font-file-url: none; fill: rgb(42,148,244); fill-rule: nonzero; opacity: 1;" transform=" translate(-368.065, -352.89)" d="M 311.43 319.47 H 424.7 c 4.37 0 7.92 3.55 7.92 7.92 v 34.91 c 0 4.37 -3.55 7.92 -7.92 7.92 h -94.11 l 7.56 16.09 l -23.4 -16.09 h -3.32 c -4.37 0 -7.92 -3.55 -7.92 -7.92 v -34.91 C 303.51 323.01 307.06 319.47 311.43 319.47 z" stroke-linecap="round"/>
</g>
		<g transform="matrix(1 0 0 1 -32.055 35.01)" id="Layer_2">
<rect style="stroke: none; stroke-width: 1; stroke-dasharray: none; stroke-linecap: butt; stroke-dashoffset: 0; stroke-linejoin: miter; stroke-miterlimit: 4; is-custom-font: none; font-file-url: none; fill: rgb(255,255,255); fill-rule: nonzero; opacity: 1;" x="-53.835" y="-1.59" rx="0" ry="0" width="107.67" height="3.18"/>
</g>
		<g transform="matrix(1 0 0 1 -32.055 43.91)" id="Layer_2">
<rect style="stroke: none; stroke-width: 1; stroke-dasharray: none; stroke-linecap: butt; stroke-dashoffset: 0; stroke-linejoin: miter; stroke-miterlimit: 4; is-custom-font: none; font-file-url: none; fill: rgb(255,255,255); fill-rule: nonzero; opacity: 1;" x="-53.835" y="-1.59" rx="0" ry="0" width="107.67" height="3.18"/>
</g>
		<g transform="matrix(1 0 0 1 -32.055 53.59)" id="Layer_2">
<rect style="stroke: none; stroke-width: 1; stroke-dasharray: none; stroke-linecap: butt; stroke-dashoffset: 0; stroke-linejoin: miter; stroke-miterlimit: 4; is-custom-font: none; font-file-url: none; fill: rgb(255,255,255); fill-rule: nonzero; opacity: 1;" x="-53.835" y="-1.59" rx="0" ry="0" width="107.67" height="3.18"/>
</g>
		<g transform="matrix(1 0 0 1 -47.3323 -108.0621)" id="Layer_2">
<path style="stroke: none; stroke-width: 1; stroke-dasharray: none; stroke-linecap: butt; stroke-dashoffset: 0; stroke-linejoin: miter; stroke-miterlimit: 4; is-custom-font: none; font-file-url: none; fill: rgb(14,83,140); fill-rule: nonzero; opacity: 1;" transform=" translate(-352.6677, -191.938)" d="M 358.8 156.91 c 0 0 -9.3 -1.76 -16.96 3.19 c -7.65 4.95 -7.25 13.84 -13.98 16.07 s -7.93 11.39 -5.23 18.14 c 2.7 6.75 1.35 16.21 -4.2 18.46 c -5.55 2.25 -0.95 16.51 9.43 14.26 c 10.38 -2.25 7.83 -10.14 19.98 -3.57 c 12.15 6.57 24.13 -5.54 24.13 -5.54 s 12.86 7.47 16.59 -0.41 c 3.73 -7.88 -8.43 -8.16 -4.84 -17.98 s -1.87 -26.13 -4.32 -29.73 S 369.96 156.28 358.8 156.91 z" stroke-linecap="round"/>
</g>
		<g transform="matrix(1 0 0 1 -21.34 -109.77)" id="Layer_2">
<circle style="stroke: none; stroke-width: 1; stroke-dasharray: none; stroke-linecap: butt; stroke-dashoffset: 0; stroke-linejoin: miter; stroke-miterlimit: 4; is-custom-font: none; font-file-url: none; fill: rgb(252,210,177); fill-rule: nonzero; opacity: 1;" cx="0" cy="0" r="4.11"/>
</g>
		<g transform="matrix(1 0 0 1 -66.7 -109.77)" id="Layer_2">
<circle style="stroke: none; stroke-width: 1; stroke-dasharray: none; stroke-linecap: butt; stroke-dashoffset: 0; stroke-linejoin: miter; stroke-miterlimit: 4; is-custom-font: none; font-file-url: none; fill: rgb(252,210,177); fill-rule: nonzero; opacity: 1;" cx="0" cy="0" r="4.11"/>
</g>
		<g transform="matrix(1 0 0 1 -44.03 -111.17)" id="Layer_2">
<ellipse style="stroke: none; stroke-width: 1; stroke-dasharray: none; stroke-linecap: butt; stroke-dashoffset: 0; stroke-linejoin: miter; stroke-miterlimit: 4; is-custom-font: none; font-file-url: none; fill: rgb(254,227,202); fill-rule: nonzero; opacity: 1;" cx="0" cy="0" rx="23.44" ry="27.24"/>
</g>
		<g transform="matrix(1 0 0 1 -44.03 -76.545)" id="Layer_2">
<rect style="stroke: none; stroke-width: 1; stroke-dasharray: none; stroke-linecap: butt; stroke-dashoffset: 0; stroke-linejoin: miter; stroke-miterlimit: 4; is-custom-font: none; font-file-url: none; fill: rgb(254,227,202); fill-rule: nonzero; opacity: 1;" x="-5.91" y="-13.515" rx="0" ry="0" width="11.82" height="27.03"/>
</g>
		<g transform="matrix(1 0 0 1 -46.5558 -125.9748)" id="Layer_2">
<path style="stroke: none; stroke-width: 1; stroke-dasharray: none; stroke-linecap: butt; stroke-dashoffset: 0; stroke-linejoin: miter; stroke-miterlimit: 4; is-custom-font: none; font-file-url: none; fill: rgb(14,83,140); fill-rule: nonzero; opacity: 1;" transform=" translate(-353.4442, -174.0252)" d="M 365.95 176.37 c 0 0 -19.48 16.7 -33.71 14.58 s 9.85 -35.27 20.4 -34 c 10.56 1.27 20.9 2.53 26.39 20.06 C 379.04 177 375.66 165.39 365.95 176.37 z" stroke-linecap="round"/>
</g>
		<g transform="matrix(1 0 0 1 -25.1321 -123.8262)" id="Layer_2">
<path style="stroke: none; stroke-width: 1; stroke-dasharray: none; stroke-linecap: butt; stroke-dashoffset: 0; stroke-linejoin: miter; stroke-miterlimit: 4; is-custom-font: none; font-file-url: none; fill: rgb(14,83,140); fill-rule: nonzero; opacity: 1;" transform=" translate(-374.8679, -176.1739)" d="M 368.32 174.02 c 0 0 4.31 10.27 10.58 11.8 c 6.27 1.53 -0.72 -14.31 -4.31 -18.45 C 370.99 163.23 368.32 174.02 368.32 174.02 z" stroke-linecap="round"/>
</g>
		<g transform="matrix(1 0 0 1 -114.5482 -103.2125)" id="Layer_2">
<path style="stroke: none; stroke-width: 1; stroke-dasharray: none; stroke-linecap: butt; stroke-dashoffset: 0; stroke-linejoin: miter; stroke-miterlimit: 4; is-custom-font: none; font-file-url: none; fill: rgb(254,227,202); fill-rule: nonzero; opacity: 1;" transform=" translate(-285.4518, -196.7876)" d="M 281.76 206.03 c 0 0 -6.73 -20.52 -4.58 -21.24 s 3.79 7.14 3.79 7.14 s -5.22 -10.83 -3.17 -10.93 c 2.05 -0.1 4.91 10.13 4.91 10.13 s -5.43 -13.41 -3.99 -14.23 c 0.38 -0.22 1 0.62 1.7 1.97 c 1.95 3.73 4.54 11.35 4.54 11.35 s -4.4 -11.79 -3.69 -12.2 c 0.72 -0.41 7.68 10.24 8.09 15.25 c 0.41 5.02 2.35 -5.73 4.2 -5.94 c 1.84 -0.2 -1.23 12.49 -1.23 12.49 l -1.37 8.09 l -5.51 8.8 h -3.56 L 281.76 206.03 z" stroke-linecap="round"/>
</g>
		<g transform="matrix(1 0 0 1 -54.1607 -52.28)" id="Layer_2">
<path style="stroke: none; stroke-width: 1; stroke-dasharray: none; stroke-linecap: butt; stroke-dashoffset: 0; stroke-linejoin: miter; stroke-miterlimit: 4; is-custom-font: none; font-file-url: none; fill: rgb(8,73,112); fill-rule: nonzero; opacity: 1;" transform=" translate(-345.8392, -247.72)" d="M 321.5 236.97 c 0 0 13.81 -11.04 28.55 -10.67 c 0 0 2.22 5.34 5.91 5.33 c 3.69 -0.01 5.91 -5.34 5.91 -5.34 s 15.39 0.56 24.57 6.98 c 9.17 6.42 44.58 55.77 44.58 55.77 h -28.44 l -20.36 -33.57 c 0 0 8.26 14.31 6.24 25.87 c -2.02 11.56 -2.39 7.71 -2.39 7.71 l -58.89 0.62 c 0 0 -9.36 -18.72 -1.47 -31.68 c 0 0 -43.48 23.91 -60.18 17.31 c -16.69 -6.6 14.86 -69.53 14.86 -69.53 l 11.56 2.39 c 0 0 -18.53 45.31 -12.66 47.33 C 285.18 257.49 321.5 236.97 321.5 236.97 z" stroke-linecap="round"/>
</g>
		<g transform="matrix(1 0 0 1 108.08 11.95)" id="Layer_2">
<circle style="stroke: none; stroke-width: 1; stroke-dasharray: none; stroke-linecap: butt; stroke-dashoffset: 0; stroke-linejoin: miter; stroke-miterlimit: 4; is-custom-font: none; font-file-url: none; fill: rgb(252,210,177); fill-rule: nonzero; opacity: 1;" cx="0" cy="0" r="3.12"/>
</g>
		<g transform="matrix(1 0 0 1 142.46 11.95)" id="Layer_2">
<circle style="stroke: none; stroke-width: 1; stroke-dasharray: none; stroke-linecap: butt; stroke-dashoffset: 0; stroke-linejoin: miter; stroke-miterlimit: 4; is-custom-font: none; font-file-url: none; fill: rgb(252,210,177); fill-rule: nonzero; opacity: 1;" cx="0" cy="0" r="3.12"/>
</g>
		<g transform="matrix(1 0 0 1 125.28 10.88)" id="Layer_2">
<ellipse style="stroke: none; stroke-width: 1; stroke-dasharray: none; stroke-linecap: butt; stroke-dashoffset: 0; stroke-linejoin: miter; stroke-miterlimit: 4; is-custom-font: none; font-file-url: none; fill: rgb(254,227,202); fill-rule: nonzero; opacity: 1;" cx="0" cy="0" rx="17.77" ry="20.65"/>
</g>
		<g transform="matrix(-1 0 0 -1 125.2807 37.1308)" id="Layer_2">
<rect style="stroke: none; stroke-width: 1; stroke-dasharray: none; stroke-linecap: butt; stroke-dashoffset: 0; stroke-linejoin: miter; stroke-miterlimit: 4; is-custom-font: none; font-file-url: none; fill: rgb(254,227,202); fill-rule: nonzero; opacity: 1;" x="-4.48" y="-10.245" rx="0" ry="0" width="8.96" height="20.49"/>
</g>
		<g transform="matrix(1 0 0 1 178.7468 16.9327)" id="Layer_2">
<path style="stroke: none; stroke-width: 1; stroke-dasharray: none; stroke-linecap: butt; stroke-dashoffset: 0; stroke-linejoin: miter; stroke-miterlimit: 4; is-custom-font: none; font-file-url: none; fill: rgb(254,227,202); fill-rule: nonzero; opacity: 1;" transform=" translate(-578.7468, -316.9326)" d="M 581.54 323.92 c 0 0 5.1 -15.56 3.47 -16.1 s -2.87 5.42 -2.87 5.42 s 3.96 -8.21 2.41 -8.29 c -1.55 -0.08 -3.72 7.68 -3.72 7.68 s 4.11 -10.16 3.03 -10.78 c -0.29 -0.16 -0.76 0.47 -1.29 1.49 c -1.48 2.83 -3.44 8.61 -3.44 8.61 s 3.34 -8.93 2.79 -9.24 c -0.54 -0.31 -5.82 7.76 -6.13 11.56 c -0.31 3.8 -1.78 -4.35 -3.18 -4.5 c -1.4 -0.16 0.93 9.47 0.93 9.47 l 1.04 6.13 l 4.17 6.67 h 2.7 L 581.54 323.92 z" stroke-linecap="round"/>
</g>
		<g transform="matrix(1 0 0 1 137.7863 55.515)" id="Layer_2">
<path style="stroke: none; stroke-width: 1; stroke-dasharray: none; stroke-linecap: butt; stroke-dashoffset: 0; stroke-linejoin: miter; stroke-miterlimit: 4; is-custom-font: none; font-file-url: none; fill: rgb(255,190,85); fill-rule: nonzero; opacity: 1;" transform=" translate(-537.7863, -355.515)" d="M 551.41 347.38 c 0 0 -10.47 -8.37 -21.64 -8.09 c 0 0 -1.68 4.05 -4.48 4.04 s -4.48 -4.05 -4.48 -4.05 s -11.67 0.42 -18.62 5.29 s -24.13 42.28 -24.13 42.28 h 11.89 l 15.44 -25.45 c 0 0 -0.05 3.77 -0.52 14.49 c -0.28 6.37 -0.55 10.98 -0.55 10.98 l 42.78 0.45 c 0 0 1.23 -2.95 1.11 -24.02 c 0 0 32.96 18.13 45.61 13.12 s -11.26 -52.71 -11.26 -52.71 l -8.76 1.81 c 0 0 14.05 34.35 9.6 35.88 C 578.94 362.93 551.41 347.38 551.41 347.38 z" stroke-linecap="round"/>
</g>
		<g transform="matrix(1 0 0 1 125.4308 0.6175)" id="Layer_2">
<path style="stroke: none; stroke-width: 1; stroke-dasharray: none; stroke-linecap: butt; stroke-dashoffset: 0; stroke-linejoin: miter; stroke-miterlimit: 4; is-custom-font: none; font-file-url: none; fill: rgb(14,83,140); fill-rule: nonzero; opacity: 1;" transform=" translate(-525.4308, -300.6175)" d="M 542.96 308.87 c 0 0 -17.38 -2.57 -23.67 -7.05 c 0 0 -9.82 9.39 -12.22 7.18 c -2.4 -2.21 3.57 -19.57 15.99 -19.57 c 12.42 0 22.77 9.44 21.07 18.14 C 542.43 316.27 542.96 308.87 542.96 308.87 z" stroke-linecap="round"/>
</g>
		<g transform="matrix(1 0 0 1 -49.4527 -69.1526)" id="Layer_2">
<path style="stroke: none; stroke-width: 1; stroke-dasharray: none; stroke-linecap: butt; stroke-dashoffset: 0; stroke-linejoin: miter; stroke-miterlimit: 4; is-custom-font: none; font-file-url: none; fill: rgb(205,232,249); fill-rule: nonzero; opacity: 1;" transform=" translate(-350.5472, -230.8474)" d="M 345.18 226.57 c 0 0 -0.79 5.19 3.59 8.04 c 4.38 2.85 7.2 -2.98 7.2 -2.98 s -4.32 -1.02 -5.91 -5.33 C 350.06 226.3 346.87 226.31 345.18 226.57 z" stroke-linecap="round"/>
</g>
		<g transform="matrix(1 0 0 1 -38.43 -69.2473)" id="Layer_2">
<path style="stroke: none; stroke-width: 1; stroke-dasharray: none; stroke-linecap: butt; stroke-dashoffset: 0; stroke-linejoin: miter; stroke-miterlimit: 4; is-custom-font: none; font-file-url: none; fill: rgb(205,232,249); fill-rule: nonzero; opacity: 1;" transform=" translate(-361.57, -230.7527)" d="M 361.88 226.29 l 5.29 0.51 c 0 0 -2.57 6.86 -5.92 8.18 c -3.35 1.32 -5.28 -3.34 -5.28 -3.34 S 359.64 230.72 361.88 226.29 z" stroke-linecap="round"/>
</g>
		<g transform="matrix(1 0 0 1 -44.215 -123.2949)" id="Layer_2">
<path style="stroke: none; stroke-width: 1; stroke-dasharray: none; stroke-linecap: butt; stroke-dashoffset: 0; stroke-linejoin: miter; stroke-miterlimit: 4; is-custom-font: none; font-file-url: none; fill: rgb(253,189,86); fill-rule: nonzero; opacity: 1;" transform=" translate(-355.785, -176.7051)" d="M 332.53 188.83 c 0 0 8.36 -20.28 20.04 -21.6 c 11.68 -1.31 21.77 -0.43 26.47 15.93 c 0 0 -0.48 -18.02 -20.94 -18.57 S 332.82 186.71 332.53 188.83 z" stroke-linecap="round"/>
</g>
		<g transform="matrix(1 0 0 1 -43.78 -25.57)" id="Layer_2">
<circle style="stroke: none; stroke-width: 1; stroke-dasharray: none; stroke-linecap: butt; stroke-dashoffset: 0; stroke-linejoin: miter; stroke-miterlimit: 4; is-custom-font: none; font-file-url: none; fill: rgb(253,189,86); fill-rule: nonzero; opacity: 0.75;" cx="0" cy="0" r="9.34"/>
</g>
		<g transform="matrix(1 0 0 1 -15.3 -25.57)" id="Layer_2">
<circle style="stroke: none; stroke-width: 1; stroke-dasharray: none; stroke-linecap: butt; stroke-dashoffset: 0; stroke-linejoin: miter; stroke-miterlimit: 4; is-custom-font: none; font-file-url: none; fill: rgb(253,189,86); fill-rule: nonzero; opacity: 0.75;" cx="0" cy="0" r="9.34"/>
</g>
		<g transform="matrix(1 0 0 1 -73.51 -25.57)" id="Layer_2">
<circle style="stroke: none; stroke-width: 1; stroke-dasharray: none; stroke-linecap: butt; stroke-dashoffset: 0; stroke-linejoin: miter; stroke-miterlimit: 4; is-custom-font: none; font-file-url: none; fill: rgb(253,189,86); fill-rule: nonzero; opacity: 0.75;" cx="0" cy="0" r="9.34"/>
</g>
		<g transform="matrix(1 0 0 1 -43.765 -25.57)" id="Layer_2">
<path style="stroke: none; stroke-width: 1; stroke-dasharray: none; stroke-linecap: butt; stroke-dashoffset: 0; stroke-linejoin: miter; stroke-miterlimit: 4; is-custom-font: none; font-file-url: none; fill: rgb(247,247,247); fill-rule: nonzero; opacity: 1;" transform=" translate(-356.235, -274.43)" d="M 360.11 272.92 l -1.62 0.62 v -0.5 c 0 -0.44 -0.36 -0.8 -0.8 -0.8 h -4.89 c -0.44 0 -0.8 0.36 -0.8 0.8 v 2.78 c 0 0.44 0.36 0.8 0.8 0.8 h 4.89 c 0.44 0 0.8 -0.36 0.8 -0.8 v -0.41 l 1.63 0.53 c 0.17 0.06 0.35 -0.07 0.35 -0.25 v -2.52 C 360.47 272.98 360.29 272.85 360.11 272.92 z" stroke-linecap="round"/>
</g>
		<g transform="matrix(1 0 0 1 -73.51 -26.87)" id="Layer_2">
<path style="stroke: none; stroke-width: 1; stroke-dasharray: none; stroke-linecap: butt; stroke-dashoffset: 0; stroke-linejoin: miter; stroke-miterlimit: 4; is-custom-font: none; font-file-url: none; fill: rgb(247,247,247); fill-rule: nonzero; opacity: 1;" transform=" translate(-326.49, -273.13)" d="M 326.49 276.88 L 326.49 276.88 c -0.99 0 -1.79 -0.8 -1.79 -1.79 v -3.92 c 0 -0.99 0.8 -1.79 1.79 -1.79 l 0 0 c 0.99 0 1.79 0.8 1.79 1.79 v 3.92 C 328.28 276.08 327.48 276.88 326.49 276.88 z" stroke-linecap="round"/>
</g>
		<g transform="matrix(1 0 0 1 -73.5 -24.335)" id="Layer_2">
<path style="stroke: rgb(247,247,247); stroke-width: 0.25; stroke-dasharray: none; stroke-linecap: butt; stroke-dashoffset: 0; stroke-linejoin: miter; stroke-miterlimit: 10; is-custom-font: none; font-file-url: none; fill: none; fill-rule: nonzero; opacity: 1;" transform=" translate(-326.5, -275.665)" d="M 324.1 273.46 v 2.01 c 0 1.32 1.07 2.4 2.4 2.4 l 0 0 c 1.32 0 2.4 -1.07 2.4 -2.4 v -2.01" stroke-linecap="round"/>
</g>
		<g transform="matrix(1 0 0 1 -73.555 -23.235)" id="Layer_2">
<rect style="stroke: none; stroke-width: 1; stroke-dasharray: none; stroke-linecap: butt; stroke-dashoffset: 0; stroke-linejoin: miter; stroke-miterlimit: 4; is-custom-font: none; font-file-url: none; fill: rgb(247,247,247); fill-rule: nonzero; opacity: 1;" x="-0.745" y="-2.335" rx="0" ry="0" width="1.49" height="4.67"/>
</g>
		<g transform="matrix(1 0 0 1 -73.55 -20.905)" id="Layer_2">
<rect style="stroke: none; stroke-width: 1; stroke-dasharray: none; stroke-linecap: butt; stroke-dashoffset: 0; stroke-linejoin: miter; stroke-miterlimit: 4; is-custom-font: none; font-file-url: none; fill: rgb(247,247,247); fill-rule: nonzero; opacity: 1;" x="-2.24" y="-0.335" rx="0" ry="0" width="4.48" height="0.67"/>
</g>
		<g transform="matrix(1 0 0 1 -15.201 -25.8759)" id="Layer_2">
<path style="stroke: none; stroke-width: 1; stroke-dasharray: none; stroke-linecap: butt; stroke-dashoffset: 0; stroke-linejoin: miter; stroke-miterlimit: 4; is-custom-font: none; font-file-url: none; fill: rgb(247,247,247); fill-rule: nonzero; opacity: 1;" transform=" translate(-384.799, -274.1241)" d="M 388.88 276.61 l -1.32 -1.32 c -0.26 -0.26 -0.7 -0.25 -0.97 0.02 l -0.67 0.66 c -0.04 -0.02 -0.09 -0.05 -0.13 -0.07 c -0.42 -0.23 -0.99 -0.55 -1.6 -1.16 c -0.61 -0.61 -0.93 -1.18 -1.16 -1.6 c -0.03 -0.04 -0.05 -0.09 -0.07 -0.13 l 0.45 -0.45 l 0.22 -0.22 c 0.27 -0.27 0.28 -0.71 0.02 -0.97 l -1.32 -1.32 c -0.26 -0.26 -0.7 -0.25 -0.97 0.02 l -0.37 0.37 l 0.01 0.01 c -0.12 0.16 -0.23 0.34 -0.31 0.54 c -0.07 0.19 -0.12 0.37 -0.14 0.55 c -0.17 1.45 0.49 2.77 2.28 4.56 c 2.48 2.48 4.47 2.29 4.56 2.28 c 0.19 -0.02 0.37 -0.07 0.55 -0.14 c 0.2 -0.08 0.38 -0.18 0.54 -0.31 l 0.01 0.01 l 0.38 -0.37 C 389.14 277.3 389.14 276.87 388.88 276.61 L 388.88 276.61 z M 388.88 276.61" stroke-linecap="round"/>
</g>
		<g transform="matrix(1 0 0 1 125.68 76.19)" id="Layer_2">
<circle style="stroke: none; stroke-width: 1; stroke-dasharray: none; stroke-linecap: butt; stroke-dashoffset: 0; stroke-linejoin: miter; stroke-miterlimit: 4; is-custom-font: none; font-file-url: none; fill: rgb(11,83,140); fill-rule: nonzero; opacity: 0.75;" cx="0" cy="0" r="5.99"/>
</g>
		<g transform="matrix(1 0 0 1 143.94 76.19)" id="Layer_2">
<circle style="stroke: none; stroke-width: 1; stroke-dasharray: none; stroke-linecap: butt; stroke-dashoffset: 0; stroke-linejoin: miter; stroke-miterlimit: 4; is-custom-font: none; font-file-url: none; fill: rgb(11,83,140); fill-rule: nonzero; opacity: 0.75;" cx="0" cy="0" r="5.99"/>
</g>
		<g transform="matrix(1 0 0 1 106.62 76.19)" id="Layer_2">
<circle style="stroke: none; stroke-width: 1; stroke-dasharray: none; stroke-linecap: butt; stroke-dashoffset: 0; stroke-linejoin: miter; stroke-miterlimit: 4; is-custom-font: none; font-file-url: none; fill: rgb(11,83,140); fill-rule: nonzero; opacity: 0.75;" cx="0" cy="0" r="5.99"/>
</g>
		<g transform="matrix(1 0 0 1 125.6903 76.19)" id="Layer_2">
<path style="stroke: none; stroke-width: 1; stroke-dasharray: none; stroke-linecap: butt; stroke-dashoffset: 0; stroke-linejoin: miter; stroke-miterlimit: 4; is-custom-font: none; font-file-url: none; fill: rgb(247,247,247); fill-rule: nonzero; opacity: 1;" transform=" translate(-525.6903, -376.19)" d="M 528.17 375.22 l -1.04 0.4 v -0.32 c 0 -0.28 -0.23 -0.51 -0.51 -0.51 h -3.13 c -0.28 0 -0.51 0.23 -0.51 0.51 v 1.78 c 0 0.28 0.23 0.51 0.51 0.51 h 3.13 c 0.28 0 0.51 -0.23 0.51 -0.51 v -0.26 l 1.05 0.34 c 0.11 0.04 0.22 -0.05 0.22 -0.16 v -1.61 C 528.41 375.26 528.29 375.17 528.17 375.22 z" stroke-linecap="round"/>
</g>
		<g transform="matrix(1 0 0 1 106.625 75.36)" id="Layer_2">
<path style="stroke: none; stroke-width: 1; stroke-dasharray: none; stroke-linecap: butt; stroke-dashoffset: 0; stroke-linejoin: miter; stroke-miterlimit: 4; is-custom-font: none; font-file-url: none; fill: rgb(247,247,247); fill-rule: nonzero; opacity: 1;" transform=" translate(-506.625, -375.36)" d="M 506.87 377.76 h -0.49 c -0.5 0 -0.9 -0.4 -0.9 -0.9 v -3 c 0 -0.5 0.4 -0.9 0.9 -0.9 h 0.49 c 0.5 0 0.9 0.4 0.9 0.9 v 3 C 507.77 377.36 507.37 377.76 506.87 377.76 z" stroke-linecap="round"/>
</g>
		<g transform="matrix(1 0 0 1 106.63 76.975)" id="Layer_2">
<path style="stroke: rgb(247,247,247); stroke-width: 0.25; stroke-dasharray: none; stroke-linecap: butt; stroke-dashoffset: 0; stroke-linejoin: miter; stroke-miterlimit: 10; is-custom-font: none; font-file-url: none; fill: none; fill-rule: nonzero; opacity: 1;" transform=" translate(-506.63, -376.975)" d="M 505.09 375.56 v 1.29 c 0 0.85 0.69 1.54 1.54 1.54 l 0 0 c 0.85 0 1.54 -0.69 1.54 -1.54 v -1.29" stroke-linecap="round"/>
</g>
		<g transform="matrix(1 0 0 1 106.595 77.675)" id="Layer_2">
<rect style="stroke: none; stroke-width: 1; stroke-dasharray: none; stroke-linecap: butt; stroke-dashoffset: 0; stroke-linejoin: miter; stroke-miterlimit: 4; is-custom-font: none; font-file-url: none; fill: rgb(247,247,247); fill-rule: nonzero; opacity: 1;" x="-0.475" y="-1.495" rx="0" ry="0" width="0.95" height="2.99"/>
</g>
		<g transform="matrix(1 0 0 1 106.595 79.175)" id="Layer_2">
<rect style="stroke: none; stroke-width: 1; stroke-dasharray: none; stroke-linecap: butt; stroke-dashoffset: 0; stroke-linejoin: miter; stroke-miterlimit: 4; is-custom-font: none; font-file-url: none; fill: rgb(247,247,247); fill-rule: nonzero; opacity: 1;" x="-1.435" y="-0.215" rx="0" ry="0" width="2.87" height="0.43"/>
</g>
		<g transform="matrix(1 0 0 1 143.9954 75.9816)" id="Layer_2">
<path style="stroke: none; stroke-width: 1; stroke-dasharray: none; stroke-linecap: butt; stroke-dashoffset: 0; stroke-linejoin: miter; stroke-miterlimit: 4; is-custom-font: none; font-file-url: none; fill: rgb(247,247,247); fill-rule: nonzero; opacity: 1;" transform=" translate(-543.9954, -375.9816)" d="M 546.62 377.58 l -0.85 -0.85 c -0.17 -0.17 -0.45 -0.16 -0.62 0.01 l -0.43 0.43 c -0.03 -0.01 -0.05 -0.03 -0.08 -0.05 c -0.27 -0.15 -0.64 -0.35 -1.03 -0.74 c -0.39 -0.39 -0.59 -0.76 -0.74 -1.03 c -0.02 -0.03 -0.03 -0.06 -0.05 -0.08 l 0.29 -0.29 l 0.14 -0.14 c 0.17 -0.17 0.18 -0.45 0.01 -0.62 l -0.85 -0.85 c -0.17 -0.17 -0.45 -0.16 -0.62 0.01 l -0.24 0.24 l 0.01 0.01 c -0.08 0.1 -0.15 0.22 -0.2 0.35 c -0.05 0.12 -0.07 0.24 -0.09 0.35 c -0.11 0.93 0.31 1.77 1.46 2.92 c 1.59 1.59 2.87 1.47 2.92 1.46 c 0.12 -0.01 0.24 -0.04 0.35 -0.09 c 0.13 -0.05 0.24 -0.12 0.35 -0.2 l 0.01 0 l 0.24 -0.24 C 546.78 378.03 546.78 377.75 546.62 377.58 L 546.62 377.58 z M 546.62 377.58" stroke-linecap="round"/>
</g>
</g>
</g>
<g transform="matrix(-0.7779 0 0 0.7779 212.0703 353.825)" id="845755">
<g style="" vector-effect="non-scaling-stroke">
		<g transform="matrix(1 0 0 1 -122.8825 -122.8835)" id="Layer_1">
<path style="stroke: none; stroke-width: 1; stroke-dasharray: none; stroke-linecap: butt; stroke-dashoffset: 0; stroke-linejoin: miter; stroke-miterlimit: 4; is-custom-font: none; font-file-url: none; fill: rgb(36,136,255); fill-rule: nonzero; opacity: 1;" transform=" translate(-128.471, -128.47)" d="M 70.971 225.97 h -40 c 0 -107.523 87.477 -195 195 -195 v 40 C 140.503 70.97 70.971 140.503 70.971 225.97 z" stroke-linecap="round"/>
</g>
		<g transform="matrix(1 0 0 1 -87.8825 -87.8835)" id="Layer_1">
<path style="stroke: none; stroke-width: 1; stroke-dasharray: none; stroke-linecap: butt; stroke-dashoffset: 0; stroke-linejoin: miter; stroke-miterlimit: 4; is-custom-font: none; font-file-url: none; fill: rgb(36,136,255); fill-rule: nonzero; opacity: 1;" transform=" translate(-163.471, -163.47)" d="M 140.971 225.97 h -40 c 0 -68.925 56.075 -125 125 -125 v 40 C 179.102 140.97 140.971 179.101 140.971 225.97 z" stroke-linecap="round"/>
</g>
		<g transform="matrix(1 0 0 1 128.424 -70.9975)" id="Layer_1">
<path style="stroke: none; stroke-width: 1; stroke-dasharray: none; stroke-linecap: butt; stroke-dashoffset: 0; stroke-linejoin: miter; stroke-miterlimit: 4; is-custom-font: none; font-file-url: none; fill: rgb(0,231,240); fill-rule: nonzero; opacity: 1;" transform=" translate(-379.7775, -180.356)" d="M 331.074 182.624 l -44.169 -44.169 L 425.361 0 l 14.118 12.988 c 5.997 5.517 58.712 55.2 62.858 100.185 c 3.448 37.418 -17.99 83.13 -36.582 114.89 c -25.499 43.561 -61.822 89.43 -105.041 132.649 L 256.85 256.848 L 331.074 182.624 z" stroke-linecap="round"/>
</g>
		<g transform="matrix(1 0 0 1 -70.9955 128.424)" id="Layer_1">
<path style="stroke: none; stroke-width: 1; stroke-dasharray: none; stroke-linecap: butt; stroke-dashoffset: 0; stroke-linejoin: miter; stroke-miterlimit: 4; is-custom-font: none; font-file-url: none; fill: rgb(0,215,223); fill-rule: nonzero; opacity: 1;" transform=" translate(-180.358, -379.7775)" d="M 138.458 286.903 l 44.168 44.169 l 74.224 -74.224 l 103.864 103.864 c -86.254 86.253 -180.157 141.989 -239.229 141.995 c -2.835 0 -5.627 -0.125 -8.31 -0.372 c -44.985 -4.148 -94.669 -56.862 -100.186 -62.858 L 0.002 425.358 L 138.458 286.903 z" stroke-linecap="round"/>
</g>
</g>
</g>
</svg>