<svg xmlns="http://www.w3.org/2000/svg" xmlns:xlink="http://www.w3.org/1999/xlink" version="1.1" id="Layer_2" x="0px" y="0px" viewBox="0 0 500 500" style="enable-background:new 0 0 500 500;" xml:space="preserve">
<style type="text/css">
	.st0{fill:#D3D3D3;}
	.st1{fill:#0B4870;}
	.st2{fill:#F7F7F7;}
	.st3{fill:#2A94F4;}
	.st4{fill:#0E538C;}
	.st5{fill:#FFBE55;}
</style>
<g>
	<g>
		<rect x="191.14" y="368.72" class="st0" width="117.71" height="65.43"/>
		<path class="st1" d="M313.75,439.04H186.25v-75.2h127.49V439.04z M196.03,429.26h107.94v-55.65H196.03V429.26z"/>
	</g>
	<g>
		<rect x="5.58" y="44.86" class="st2" width="488.85" height="337.01"/>
		<path class="st1" d="M493.71,386.76H6.29c-3.1,0-5.6-2.51-5.6-5.6V45.58c0-3.1,2.51-5.6,5.6-5.6h487.42c3.1,0,5.6,2.51,5.6,5.6    v335.58C499.31,384.25,496.8,386.76,493.71,386.76z M16.07,376.99h467.86c3.1,0,5.6-2.51,5.6-5.6V55.36c0-3.1-2.51-5.6-5.6-5.6    H16.07c-3.1,0-5.6,2.51-5.6,5.6v316.02C10.46,374.48,12.97,376.99,16.07,376.99z"/>
	</g>
	<g>
		<rect x="153.71" y="434.15" class="st2" width="192.58" height="20.99"/>
		<path class="st1" d="M345.57,460.02H154.43c-3.1,0-5.6-2.51-5.6-5.6v-19.55c0-3.1,2.51-5.6,5.6-5.6h191.14c3.1,0,5.6,2.51,5.6,5.6    v19.55C351.18,457.51,348.67,460.02,345.57,460.02z M164.21,450.25h171.59c3.1,0,5.6-2.51,5.6-5.6v0c0-3.1-2.51-5.6-5.6-5.6    H164.21c-3.1,0-5.6,2.51-5.6,5.6v0C158.6,447.74,161.11,450.25,164.21,450.25z"/>
	</g>
	<g>
		<rect x="33.85" y="82.97" class="st3" width="432.3" height="260.81"/>
	</g>
	<path class="st4" d="M466.15,343.77H33.85V277.3c0,0,137.29,27.57,216.15,27.57s216.15-27.57,216.15-27.57V343.77z"/>
	<path class="st1" d="M465.44,348.66H34.56c-3.1,0-5.6-2.51-5.6-5.6V83.68c0-3.1,2.51-5.6,5.6-5.6h430.87c3.1,0,5.6,2.51,5.6,5.6   v259.37C471.04,346.15,468.53,348.66,465.44,348.66z M44.34,338.88h411.32c3.1,0,5.6-2.51,5.6-5.6V93.46c0-3.1-2.51-5.6-5.6-5.6   H44.34c-3.1,0-5.6,2.51-5.6,5.6v239.82C38.74,336.37,41.25,338.88,44.34,338.88z"/>
	<g>
		<g>
			<g>
				<path class="st5" d="M313.34,203.91H186.66v-70.66c0-34.93,28.42-63.34,63.34-63.34c34.92,0,63.34,28.42,63.34,63.34V203.91z       M205.98,184.59h88.05v-51.34c0-24.27-19.75-44.03-44.02-44.03s-44.03,19.75-44.03,44.03V184.59z"/>
				<path class="st1" d="M318.23,208.8H181.77v-75.55c0-37.62,30.61-68.23,68.23-68.23c37.62,0,68.23,30.61,68.23,68.23V208.8z       M191.55,199.02h116.91v-65.77c0-32.23-26.22-58.45-58.45-58.45c-32.23,0-58.45,26.22-58.45,58.45V199.02z M298.91,189.48      h-97.82v-56.23c0-26.97,21.94-48.91,48.91-48.91c26.97,0,48.91,21.94,48.91,48.91V189.48z M210.87,179.71h78.27v-46.45      c0-21.58-17.55-39.14-39.13-39.14c-21.58,0-39.14,17.56-39.14,39.14V179.71z"/>
			</g>
		</g>
		<g>
			<path class="st5" d="M299.12,302.54h-98.24c-18.02,0-32.62-14.61-32.62-32.62v-65.3c0-18.02,14.61-32.62,32.62-32.62h98.24     c18.02,0,32.62,14.61,32.62,32.62v65.3C331.74,287.93,317.14,302.54,299.12,302.54z"/>
			<path class="st1" d="M299.85,307.42h-99.7c-20.28,0-36.78-16.5-36.78-36.78v-66.76c0-20.28,16.5-36.78,36.78-36.78h99.7     c20.28,0,36.78,16.5,36.78,36.78v66.76C336.63,290.92,320.13,307.42,299.85,307.42z M200.15,176.88     c-14.89,0-27.01,12.12-27.01,27.01v66.76c0,14.89,12.12,27.01,27.01,27.01h99.7c14.89,0,27.01-12.12,27.01-27.01v-66.76     c0-14.89-12.12-27.01-27.01-27.01H200.15z"/>
		</g>
		<g>
			<path class="st5" d="M264.87,260.71l-6.59-24.67c2.68-2.33,4.45-5.66,4.45-9.49c0-7.03-5.7-12.74-12.74-12.74     c-7.03,0-12.73,5.7-12.73,12.74c0,3.83,1.78,7.16,4.45,9.49l-6.59,24.67H264.87z"/>
			<path class="st1" d="M271.24,265.6h-42.47l7.52-28.16c-2.54-3.11-3.91-6.88-3.91-10.89c0-9.72,7.91-17.62,17.62-17.62     c9.72,0,17.62,7.91,17.62,17.62c0,4.01-1.37,7.78-3.91,10.89L271.24,265.6z M241.5,255.82h17.01l-5.73-21.46l2.3-2     c1.04-0.91,2.78-2.86,2.78-5.81c0-4.33-3.52-7.85-7.85-7.85c-4.33,0-7.85,3.52-7.85,7.85c0,2.95,1.74,4.9,2.78,5.81l2.3,2     L241.5,255.82z"/>
		</g>
	</g>
</g>
</svg>