<?xml version="1.0" encoding="UTF-8" standalone="no"?> <svg id="Layer_1" data-name="Layer 1" xmlns="http://www.w3.org/2000/svg" viewBox="0 0 128 128"><defs><style>.cls-1{fill:#2e79bd;}.cls-2{fill:#2d3e50;}</style></defs><title>b</title><path class="cls-1" d="M82.06751,39.44785l10.01337,6.33937a1.68347,1.68347,0,0,0,1.73569.061,1.93657,1.93657,0,0,0,.97462-1.71369V40.82a14.00366,14.00366,0,0,1,4.81617.73367,14.36383,14.36383,0,0,1,2.8346,1.31369,14.6996,14.6996,0,0,1,2.08366,1.51915,14.87579,14.87579,0,0,1,2.516,2.8485,15.04625,15.04625,0,0,1,1.03549,1.7811,15.37668,15.37668,0,0,1,1.53353,5.78607l.03111.48441h2.88689l.0276-.48846a18.75389,18.75389,0,0,0-1.02489-7.22061,19.17027,19.17027,0,0,0-3.72387-6.31926c-.02375-.02888-.0475-.05594-.07375-.08536a19.559,19.559,0,0,0-11.717-6.27014c-.40884-.0614-.81916-.10992-1.2255-.14494V31.45579a1.93678,1.93678,0,0,0-.97462-1.71382,1.68271,1.68271,0,0,0-1.7344.06039l-10.01492,6.34a1.99211,1.99211,0,0,0,.00027,3.30551Z"/><path class="cls-1" d="M20.61111,60.79112a1.93686,1.93686,0,0,0,1.65255.88009h.00007a1.9375,1.9375,0,0,0,1.65282-.88009l6.33937-10.01351a1.68289,1.68289,0,0,0,.061-1.73562,1.9367,1.9367,0,0,0-1.71382-.97456H25.28861a13.99208,13.99208,0,0,1,.73373-4.816,14.35181,14.35181,0,0,1,1.31383-2.8348,14.70575,14.70575,0,0,1,1.51909-2.08386A14.8698,14.8698,0,0,1,31.70369,35.817a15.04315,15.04315,0,0,1,1.781-1.03549,15.38076,15.38076,0,0,1,5.78614-1.53373l.48434-.031V30.33008l-.48839-.02753a18.75007,18.75007,0,0,0-7.22047,1.02462,19.16675,19.16675,0,0,0-6.31893,3.7238c-.02915.02375-.05621.04764-.08563.07409a19.55568,19.55568,0,0,0-6.27014,11.7166c-.06154.40857-.11005.81916-.14514,1.22577H15.92443a1.93683,1.93683,0,0,0-1.71376.97456,1.68263,1.68263,0,0,0,.06039,1.73461Z"/><path class="cls-1" d="M76.93744,102.6894,66.92387,96.35a1.278,1.278,0,0,0-1.91477,1.21612V100.49L52.27868,101.525a2.38052,2.38052,0,0,0,0,4.761L65.0091,107.321v2.92387a1.278,1.278,0,0,0,1.91477,1.21612l10.01357-6.3393A1.47482,1.47482,0,0,0,76.93744,102.6894Z"/><path class="cls-2" d="M40.29244,101.8313c-4.00936-1.99931-12.80742-4.952-12.80742-4.952v-2.905l.24487-.18482a8.40562,8.40562,0,0,0,3.19148-5.34174l.04926-.30958h.2388a3.24684,3.24684,0,0,0,3.005-2.02084,3.536,3.536,0,0,0,.4421-1.71281,3.25383,3.25383,0,0,0-.231-1.20451,1.68022,1.68022,0,0,0-.65155-1.04736l-.81174-.49291.20175-.881c1.46639-6.39214-3.48568-12.14973-10.135-12.30837-.16174-.0031-.32193-.00466-.48056-.00155-.15864-.0031-.31882-.00155-.48056.00155-6.64942.15864-11.60142,5.91623-10.135,12.30837l.20175.881-.81174.49291A1.68022,1.68022,0,0,0,10.67128,83.2a3.25383,3.25383,0,0,0-.231,1.20451,3.536,3.536,0,0,0,.4421,1.71281,3.24684,3.24684,0,0,0,3.005,2.02084h.23873l.04932.30958a8.40533,8.40533,0,0,0,3.19148,5.34174l.24487.18482v2.905S8.81374,99.832,4.80438,101.8313a4.27845,4.27845,0,0,0-2.30579,3.10518A93.15758,93.15758,0,0,0,1.69,115.70923H43.40686a93.15758,93.15758,0,0,0-.80863-10.77275A4.27845,4.27845,0,0,0,40.29244,101.8313Z"/><path class="cls-2" d="M125.50141,104.93648a4.27845,4.27845,0,0,0-2.30579-3.10518c-4.00936-1.99931-12.80742-4.952-12.80742-4.952v-2.905l.24487-.18482a8.40533,8.40533,0,0,0,3.19148-5.34174l.04932-.30958h.23873a3.24684,3.24684,0,0,0,3.005-2.02084,3.536,3.536,0,0,0,.4421-1.71281,3.25383,3.25383,0,0,0-.231-1.20451,1.68022,1.68022,0,0,0-.65155-1.04736l-.81174-.49291.20175-.881c1.46639-6.39214-3.48561-12.14973-10.135-12.30837-.16174-.0031-.32193-.00466-.48056-.00155-.15864-.0031-.31882-.00155-.48056.00155-6.64936.15864-11.60142,5.91623-10.135,12.30837l.20175.881-.81174.49291A1.68022,1.68022,0,0,0,93.57446,83.2a3.25383,3.25383,0,0,0-.231,1.20451,3.536,3.536,0,0,0,.4421,1.71281,3.24684,3.24684,0,0,0,3.005,2.02084h.2388l.04926.30958a8.40562,8.40562,0,0,0,3.19148,5.34174l.24487.18482v2.905s-8.79806,2.95268-12.80742,4.952a4.27845,4.27845,0,0,0-2.30579,3.10518,93.15758,93.15758,0,0,0-.80863,10.77275H126.31A93.15759,93.15759,0,0,0,125.50141,104.93648Z"/><path class="cls-2" d="M80.32089,45.655c-4.00936-1.99931-12.80742-4.95206-12.80742-4.95206V37.798l.24494-.18488a8.40521,8.40521,0,0,0,3.19141-5.34167l.04932-.30958h.23873A3.247,3.247,0,0,0,74.243,29.941a3.5359,3.5359,0,0,0,.442-1.71281,3.25357,3.25357,0,0,0-.231-1.20451,1.67965,1.67965,0,0,0-.65155-1.04736l-.81174-.49291.20182-.881c1.46632-6.39214-3.48568-12.14973-10.1351-12.30843-.16167-.003-.32186-.00459-.48056-.00148-.15864-.0031-.31882-.00155-.48056.00148-6.64936.1587-11.60135,5.9163-10.135,12.30843l.20175.881-.81167.49291a1.67965,1.67965,0,0,0-.65155,1.04736,3.25357,3.25357,0,0,0-.231,1.20451,3.5359,3.5359,0,0,0,.442,1.71281,3.247,3.247,0,0,0,3.00511,2.02084h.23873l.04926.30958a8.4053,8.4053,0,0,0,3.19148,5.34167l.24494.18488V40.7029S48.84219,43.65565,44.83283,45.655A4.27845,4.27845,0,0,0,42.527,48.76014a93.15758,93.15758,0,0,0-.80863,10.77275h41.717a93.16376,93.16376,0,0,0-.8087-10.77275A4.27845,4.27845,0,0,0,80.32089,45.655Z"/></svg>