<svg xmlns="http://www.w3.org/2000/svg" xmlns:xlink="http://www.w3.org/1999/xlink" version="1.1" x="0px" y="0px" viewBox="0 0 1000 1000" style="enable-background:new 0 0 1080 1080;" xml:space="preserve">
<style type="text/css">
	.st0{opacity:0.5;fill:#FFBE55;}
	.st1{fill:#0E538C;}
	.st2{fill:#2A94F4;}
	.st3{fill:#F7F7F7;}
	.st4{fill:#D3D3D3;}
	.st5{fill:#FFBE55;}
</style>
<g id="Layer_3">
	<path class="st0" d="M555.1,191c-16.1-1.6-129.9-12.9-178,52c-33.7,45.6-0.4,81.9-39,131c-22.7,28.9-37.1,20-84,59   c-36,29.9-71.7,59.6-77,103c-7,57.1,42.8,104.6,57,117c39.9,34.8,64.8,24.7,163,59c98.9,34.5,94.4,52,147,58   c85.4,9.7,154.4-29.9,179-44c66.8-38.3,101.3-88.9,118-114c30.7-46.2,56.4-84.7,47-127c-4.4-20.1-13.9-28.2-94-98   c-81-70.6-121.6-106.2-128-116c-14.2-21.7-27.4-48.7-60-66C596.4,199.9,581.2,193.6,555.1,191z"/>
</g>
<g id="laptop">
	<path class="st1" d="M762.8,327.3H322.4c-6.2,0-11.2,5.2-11.2,11.6v267.6c0,6.4,5,11.6,11.2,11.6h440.4c6.2,0,11.2-5.2,11.2-11.6   V338.8C774.1,332.5,769,327.3,762.8,327.3z M328.7,604.1"/>
	<path class="st1" d="M758.9,593.8c0,6.8-5,12.2-11.2,12.2H333.4c-2.7,0-5.1-1-7-2.7L758.9,593.8z"/>
	<path class="st1" d="M799.5,700.7H285.8c-6.8,0-12.3-1.2-12.3-2.7l-0.4-13.2l39.8-50.8c0-1.5,5.5-2.7,12.3-2.7h435   c6.8,0,12.3,1.2,12.3,2.7l39.7,51.2l-0.3,12.9C811.8,699.5,806.3,700.7,799.5,700.7z"/>
	<path class="st2" d="M799.8,687.5H285.4c-6.8,0-12.3-1.1-12.3-2.5l39.4-58.4c0-1.4,5.5-2.5,12.3-2.5h435.6c6.8,0,12.3,1.1,12.3,2.5   l39.4,58.4C812.1,686.4,806.6,687.5,799.8,687.5z"/>
	<g>
		<path class="st3" d="M761,359.9v237.9c0,6.2-5,11.3-11.2,11.3H335.5c-2.7,0-5.1-0.9-7-2.5l426.9-256.5    C758.7,352.1,761,355.7,761,359.9z"/>
		<path class="st4" d="M755.3,350.1L328.4,606.6c-2.5-2.1-4.2-5.2-4.2-8.8V359.9c0-6.2,5-11.3,11.2-11.3h414.2    C751.8,348.6,753.7,349.2,755.3,350.1z"/>
	</g>
	<ellipse class="st5" cx="542.6" cy="337.7" rx="3.5" ry="3.6"/>
	<path class="st5" d="M643.2,681.5H442c-2.7,0-4.8-0.3-4.8-0.8l15.4-17.9c0-0.4,2.2-0.8,4.8-0.8h170.4c2.7,0,4.8,0.3,4.8,0.8   l15.4,17.9C648.1,681.2,645.9,681.5,643.2,681.5z"/>
	<polygon class="st1" points="443.9,624.1 431.4,631.2 653.8,631.2 637,624.5  "/>
	<polygon class="st5" points="325.7,635.3 309.8,658 775.4,658 760.5,636.3  "/>
</g>
</svg>