<svg xmlns="http://www.w3.org/2000/svg" xmlns:xlink="http://www.w3.org/1999/xlink" viewBox="0 0 625.02 625.02"><defs><style>.cls-1{opacity:0.15;fill:url(#linear-gradient);}.cls-2{fill:#2a94f4;}</style><linearGradient id="linear-gradient" x1="519.63" y1="685.87" x2="210.5" y2="150.43" gradientUnits="userSpaceOnUse"><stop offset="0" stop-color="#43aced" stop-opacity="0"/><stop offset="1" stop-color="#231f20"/></linearGradient></defs><title>Multimedia Icons</title><g id="Layer_2" data-name="Layer 2"><path class="cls-1" d="M487.1,414.29,625,611v14H364.85l-202.7-300.9s-40.32-96.36,0-141.43,78.62,0,78.62,0l32.17,46.84L242.3,279.32s46.72,86.8,84.25,101.23,35,14.92,58.08-17.49S487.1,414.29,487.1,414.29"/></g><g id="Layer_1" data-name="Layer 1"><path class="cls-2" d="M434.5,358.87c-7.85-8.18-17.33-12.56-27.37-12.56s-19.52,4.29-27.7,12.48l-25.6,25.51c-2.11-1.14-4.21-2.19-6.24-3.24-2.91-1.46-5.67-2.83-8-4.29-24-15.23-45.76-35.08-66.66-60.75-10.12-12.8-16.92-23.57-21.86-34.5,6.64-6.08,12.79-12.4,18.79-18.48,2.27-2.26,4.53-4.61,6.8-6.88,17-17,17-39,0-56.05L254.53,178c-2.51-2.51-5.11-5.1-7.53-7.69-4.86-5-10-10.21-15.23-15.07-7.86-7.78-17.26-11.91-27.14-11.91s-19.43,4.13-27.53,11.91l-.17.16-27.54,27.78a59.26,59.26,0,0,0-17.57,37.67c-1.95,23.65,5,45.68,10.37,60.1,13.11,35.39,32.72,68.19,62,103.35,35.47,42.36,78.16,75.81,126.92,99.38,18.63,8.83,43.5,19.28,71.28,21.06,1.7.08,3.48.16,5.1.16,18.71,0,34.43-6.72,46.74-20.09.08-.16.24-.24.32-.4a183,183,0,0,1,14.18-14.66c3.48-3.32,7-6.8,10.52-10.45,8-8.34,12.23-18.06,12.23-28s-4.29-19.69-12.47-27.79Zm29,85.28c-.08,0-.08.09,0,0-3.16,3.41-6.4,6.49-9.88,9.89A210,210,0,0,0,438,470.24c-8.18,8.75-17.82,12.87-30.46,12.87-1.21,0-2.51,0-3.72-.07-24.06-1.54-46.42-10.94-63.18-19a359.69,359.69,0,0,1-119.55-93.63c-27.62-33.29-46.09-64.07-58.32-97.12-7.53-20.16-10.29-35.88-9.07-50.7a37.18,37.18,0,0,1,11.17-24.06L192.49,171c4-3.73,8.17-5.75,12.31-5.75,5.1,0,9.23,3.08,11.82,5.67l.24.24c4.95,4.62,9.64,9.4,14.58,14.5,2.52,2.6,5.11,5.19,7.7,7.86l22.11,22.11c8.59,8.59,8.59,16.53,0,25.11-2.35,2.35-4.62,4.7-7,7-6.81,7-13.29,13.44-20.33,19.76-.17.16-.33.24-.41.4-7,7-5.67,13.77-4.21,18.39l.24.73c5.75,13.93,13.85,27.05,26.16,42.69l.08.08c22.36,27.53,45.93,49,71.93,65.44a109.48,109.48,0,0,0,10,5.43c2.92,1.46,5.67,2.83,8,4.29.33.17.65.41,1,.57a17.54,17.54,0,0,0,8,2c6.72,0,10.94-4.21,12.31-5.58l27.7-27.7c2.76-2.76,7.13-6.08,12.24-6.08s9.15,3.16,11.66,5.91l44.79,44.79c8.34,8.26,8.34,16.77.08,25.35Zm0,0"/><path class="cls-2" d="M330.74,204.38a104.23,104.23,0,0,1,84.88,84.89,10.87,10.87,0,0,0,10.78,9.07,14.75,14.75,0,0,0,1.86-.16,11,11,0,0,0,9-12.64A126.06,126.06,0,0,0,334.54,182.83a11,11,0,0,0-12.63,8.91,10.81,10.81,0,0,0,8.83,12.64Zm0,0"/><path class="cls-2" d="M493.37,289.41A207.55,207.55,0,0,0,324.25,120.29a10.92,10.92,0,1,0-3.56,21.54A185.41,185.41,0,0,1,471.83,293,10.86,10.86,0,0,0,482.6,302a14.44,14.44,0,0,0,1.86-.16,10.72,10.72,0,0,0,8.91-12.47Zm0,0"/></g></svg>