<svg xmlns="http://www.w3.org/2000/svg" xmlns:xlink="http://www.w3.org/1999/xlink" viewBox="0 0 625.02 625.02"><defs><style>.cls-1{opacity:0.15;fill:url(#linear-gradient);}.cls-2{fill:#2a94f4;}</style><linearGradient id="linear-gradient" x1="532.55" y1="678.41" x2="204.15" y2="109.59" gradientUnits="userSpaceOnUse"><stop offset="0" stop-color="#43aced" stop-opacity="0"/><stop offset="1" stop-color="#231f20"/></linearGradient></defs><title>Multimedia Icons</title><g id="Layer_2" data-name="Layer 2"><path class="cls-1" d="M123.36,478.88,284.6,625H625V329.36L501.66,202.59,354.3,195.32s-36-1.53-47.49-28.34S198,140.1,198,140.1s-89.61-8.36-91.91,52.16,17.23,286.62,17.23,286.62"/></g><g id="Layer_1" data-name="Layer 1"><path class="cls-2" d="M457.12,186.1H356.17a44.58,44.58,0,0,1-44.55-44.54,11.9,11.9,0,0,0-11.95-11.95H167.9a68.56,68.56,0,0,0-68.45,68.45V427a68.56,68.56,0,0,0,68.45,68.45H457.12A68.56,68.56,0,0,0,525.57,427V254.47a68.48,68.48,0,0,0-68.45-68.37Zm44.54,240.78a44.58,44.58,0,0,1-44.54,44.54H167.9a44.57,44.57,0,0,1-44.54-44.54V198.06a44.58,44.58,0,0,1,44.54-44.54H288.78A68.57,68.57,0,0,0,356.17,210H457.12a44.58,44.58,0,0,1,44.54,44.54Zm0,0"/></g></svg>