<svg xmlns="http://www.w3.org/2000/svg" xmlns:xlink="http://www.w3.org/1999/xlink" version="1.1" id="Layer_1" x="0px" y="0px" viewBox="0 0 1080 1080" style="enable-background:new 0 0 1080 1080;" xml:space="preserve">
<style type="text/css">
	.st0{opacity:0.51;fill:#CCE9FF;}
	.st1{fill:#D3D3D3;}
	.st2{clip-path:url(#SVGID_2_);fill:#2A94F4;}
	.st3{clip-path:url(#SVGID_2_);fill:#FEE3CA;}
	.st4{clip-path:url(#SVGID_2_);fill:#FFBE55;}
	.st5{clip-path:url(#SVGID_2_);}
	.st6{fill:#2A94F4;}
	.st7{clip-path:url(#SVGID_2_);fill:#EACDB5;}
	.st8{clip-path:url(#SVGID_2_);fill:#084970;}
	.st9{clip-path:url(#SVGID_4_);}
	.st10{fill:#FFBE55;}
	.st11{fill:#F49E87;}
	.st12{fill:#222B54;}
	.st13{fill:#FFFFFF;}
	.st14{fill:#BACEDB;}
	.st15{fill:#084970;}
	.st16{fill:#FEE3CA;}
	.st17{fill:#0E538C;}
	.st18{clip-path:url(#SVGID_6_);}
	.st19{fill:#EACDB5;}
	.st20{fill:#FCD2B1;}
	.st21{fill:none;stroke:#FFFFFF;stroke-width:4;stroke-linecap:round;stroke-linejoin:round;stroke-miterlimit:10;}
</style>
<g>
	<path class="st0" d="M289.89,273.42c0,0,174.5-201.03,367.37-72.45S710.33,491.8,913.4,576.5   c149.79,62.47,92.86,485.74-151.03,409.21s-308.54-191.29-509.9-118.6S-7.06,572.42,289.89,273.42z"/>
	<g>
		<g>
			
				<ellipse transform="matrix(0.7071 -0.7071 0.7071 0.7071 -95.3646 725.8387)" class="st1" cx="828.48" cy="478.03" rx="139" ry="139"/>
		</g>
		<path class="st1" d="M656.72,845.72c-3.3,83.6-64.87,152.78-148.51,154.41c-83.65,1.63-152.78-64.87-154.41-148.51    c-1.63-83.65,65.1-160.82,148.51-154.41C591.29,704.05,659.73,769.44,656.72,845.72z"/>
		
			<ellipse transform="matrix(0.7071 -0.7071 0.7071 0.7071 -164.7078 293.9167)" class="st1" cx="272.43" cy="345.78" rx="141.73" ry="141.73"/>
		<g>
			<path class="st1" d="M810.53,510.8c2.2,2.03-51.51,63.84-119.95,138.05c-68.46,74.23-125.73,132.74-127.93,130.71     c-2.2-2.03,51.5-63.83,119.96-138.06C751.06,567.29,808.33,508.77,810.53,510.8z"/>
		</g>
		<g>
			<path class="st1" d="M782.05,410.01c-0.64,2.92-95.28-15.19-211.37-40.44c-116.13-25.27-209.72-48.11-209.09-51.04     c0.64-2.92,95.26,15.18,211.39,40.45C689.07,384.23,782.69,407.08,782.05,410.01z"/>
		</g>
		<g>
			<path class="st1" d="M437.02,752.39c-1.24,0.77-15.96-20.28-38.26-55.28c-22.3-34.99-52.05-84-83.37-139.01     c-31.32-55.04-58.27-105.65-76.98-142.69c-18.71-37.04-29.29-60.44-28-61.11c1.36-0.71,14.34,21.43,34.75,57.5     c20.4,36.1,48.54,85.91,79.64,140.94c31.43,54.82,59.89,104.45,80.51,140.41C425.91,729.11,438.32,751.58,437.02,752.39z"/>
		</g>
	</g>
	<g>
		<defs>
			<path id="SVGID_1_" d="M689.76,486.79c4.84,76.61,70.86,134.8,147.48,129.97c76.61-4.84,134.8-70.86,129.97-147.48     c-4.84-76.61-70.86-285.39-147.48-280.56C743.11,193.56,684.93,410.18,689.76,486.79z"/>
		</defs>
		<clipPath id="SVGID_2_">
			<use xlink:href="#SVGID_1_" style="overflow:visible;"/>
		</clipPath>
		<path class="st2" d="M647.43,688.41l45.55,15.71c0,0,28.99-59.01,36.05-67.02c8.05-9.14,13.84-79.49,17.49-143.12    c3.18-55.65,4.73-106.16,4.73-106.16s-15.5,3.53-25.63,29.71c-17.35,44.88-17.23,132.5-26.88,177.68    C693.19,621.22,656.81,684.72,647.43,688.41z"/>
		<path class="st2" d="M692.98,704.12c17.37-20.21,28.99-59.01,36.05-67.02c8.05-9.14,46.16-61.09,10.56-142.78    c-17.45,51.66-2.89,79.81-8.38,110.31C725.76,634.88,694.57,683.91,692.98,704.12z"/>
		<path class="st2" d="M930.29,454.09c-0.66-2.71-1.36-5.38-2.11-8c-10.1-35.73-26.57-61.64-52.44-65.88    c-3.25,8.84-34.92,23.52-62.62,22.09c-3.06-0.16-7.57-4.31-7.63-4.33c-21.89-3.09-32.3-14.82-31.27-16.4    c-0.92,0.07-22.98,6.25-22.98,6.25c-19.14,83.72-21.44,130.24,1.6,249.62c8.41,43.61-4.45,67.3-1.6,70.16    c4.99,5,60.13,6.43,104.47,8.15c5.32,0.2,10.58,0.39,15.69,0.56c32.41,1.06,59.11,1.43,59.11,1.43c2.2-2.74,6.25-28.05,9.02-63.67    C943.97,597.17,945.13,513.96,930.29,454.09z"/>
		<path class="st3" d="M860.52,384.23l-26.36,21.84l-40.14-6.2c0.38-3.86,2.38-20.62,4.1-34.91c1.41-11.68,2.64-21.7,2.64-21.7    l47.95-19.19l1.45-0.58c-0.02,0.24-0.03,0.48-0.04,0.72c-0.14,1.92-0.22,3.79-0.26,5.63    C849.04,362.61,860.52,384.23,860.52,384.23z"/>
		<path class="st4" d="M826.94,402.81l-26.41-2.8c0,0-3.31,0.73-2.67,4.88c0.63,4.16,9.34,15.42,12.62,15.98    C813.76,421.44,834.09,410.46,826.94,402.81z"/>
		<g class="st5">
			<path class="st6" d="M797.13,373.18c0,0,4.4,19.62,15.98,29.11l-17.87,23.25c0,0-21.65-25.63-21.02-43.98     C774.23,381.56,791.4,373.86,797.13,373.18z"/>
			<path class="st6" d="M797.13,373.18c0,0,3.35,18.47,14.94,27.96l-17.17,21.14c0,0-18.85-21.91-20.67-40.72     C774.23,381.56,791.4,373.86,797.13,373.18z"/>
			<path class="st6" d="M857.28,373.18c0,0-27.34,25.9-45.21,27.96l12.23,30.54c0,0,53.25-31.55,53.41-50.44     C877.71,381.24,863.06,373.34,857.28,373.18z"/>
			<path class="st6" d="M855.33,372.14c0,0-25.38,26.94-43.26,29l9.91,28.15c0,0,53.62-30.19,53.78-49.08     C875.76,380.2,861.1,372.31,855.33,372.14z"/>
		</g>
		<path class="st2" d="M939.54,654.06c-2.77,35.63-2.02,54.25-13.02,64.72c0,0-22.25,8.38-55.11-2.48    c-11.21-5.73-19.97-13.61-24.31-24.4c-21.65-53.76,19.55-98.44,21.64-134.04c2.09-35.61,34.73-61.61,34.73-61.61    S943.97,597.17,939.54,654.06z"/>
		<path class="st4" d="M814.57,417.79c0,0,5.01,47.24,5.9,63.04c2.5,44.46,3.42,178.09,3.42,178.09s1.32,11.67-6.47,20.97    c-7.79,9.3-15.92,15.67-15.92,15.67s-11.43-10-15.96-28.78c-3.02-12.5,4.22-117.42,11.52-187.31c3.67-35.13,9.73-62.64,9.73-62.64    S812.76,415.79,814.57,417.79z"/>
		<path class="st3" d="M839.77,661.18c0,0-21.29,5.59-28.28,9.43c-6.98,3.84-20.99,22.25-17.85,25.13    c15.77,14.45,18.2-1.57,37.57-6.81c3.52-0.95,19.72-19.03,19.72-19.03L839.77,661.18z"/>
		<path class="st2" d="M875.76,380.2c0,0,36.28,5.9,54.43,24.75c18.15,18.85,48.87,173.14,41.19,194.79    c-7.68,21.64-69.12,65.63-113.1,83.78c0,0-21.64-9.77-23.04-26.53c0,0,74.7-62.83,78.2-79.59    C916.92,560.65,875.76,380.2,875.76,380.2z"/>
		<path class="st7" d="M850.11,324.21c-0.14,1.92-0.22,3.79-0.26,5.63c-9.28,10-31.09,31.32-51.73,35.1    c1.41-11.68,2.64-21.7,2.64-21.7l47.95-19.19L850.11,324.21z"/>
		<path class="st3" d="M795.76,347.11c0,0,57.51,2.63,58.59-33.21c1.09-35.84,9.24-59.63-27.43-62.83    c-36.67-3.19-44.22,10.27-47.49,22.14C776.15,285.09,780.83,345.5,795.76,347.11z"/>
		<path class="st8" d="M854.35,313.9c0,0-4.3-47.82-55.53-46.11c-51.23,1.71-29.07-46.74,14.95-53.88c0,0-4.6,17.07,23.1,19.77    C894.99,239.35,859.51,306.31,854.35,313.9z"/>
		<path class="st3" d="M854,314c0,0,7-16,4-22s-8.11,5.93-8.11,5.93S845,310,847,313S854,314,854,314z"/>
	</g>
	<g>
		<defs>
			<path id="SVGID_3_" d="M131,358c4.84,76.61,73.47,137.05,150.08,132.22c10.75-0.68,25.14-5.56,40.45-11.68     c87.25-34.9,244.99-73.94,240.83-139.8c-2.83-44.81,32.64-218.78-44.9-283.69c-55.03-46.07-222.08,5.14-253.89,7.14     C186.96,67.02,126.16,281.39,131,358z"/>
		</defs>
		<clipPath id="SVGID_4_">
			<use xlink:href="#SVGID_3_" style="overflow:visible;"/>
		</clipPath>
		<g class="st9">
			<path class="st10" d="M143,391c8.52,31.25,28.46,57.38,37,71c6.36,10.14,5.31,36.04,15.29,43.86     c4.12,3.23,4.94-12.79,10.71-14.86c10.43-3.74-27.06-93.49-25-111c3.61-30.71,50.25-59.06,52-72c1.91-14.11,3.3-22.07-8.07-28.79     c-13.41-7.93-22.44-11.01-35.93-3.21c-12.11,7-29.67,36.24-36,48C153,324,134,358,143,391z"/>
			<path class="st11" d="M237.33,502.35c2.93-1.86,6.08-3.45,9.01-5.31c1.66-1.06,2.94-2.32,3.8-3.71c3.83,1.34,8.1,3.19,12.21,5.76     c11.83,7.39,16.97,17.86,10.72,15.45c-6.26-2.41-13.41-9.82-19.08-9.44c-5.67,0.38,8.96,27.74,13,29.62     c4.04,1.87,6.39,9.02-5.1,5.5c-11.48-3.52-29.11-27.47-30.22-36.07c-0.02-0.18,0-0.34-0.01-0.52     C233.7,503.75,235.72,503.38,237.33,502.35z"/>
			<g>
				<g>
					<path class="st12" d="M223.35,901.99c-5.79-5.32-8.54-9.23-8.54-9.23c-4.54-1.52-27.95,1.55-30.43,3.79       c-2.48,2.23,4.08,11.22,4.08,11.22s7.36-4.6,4.79,4.25c-2.57,8.85,19.68,49.53,24.07,56.06c4.39,6.53-4.39-24.58-4.6-40.03       C212.5,912.61,223.35,901.99,223.35,901.99z"/>
				</g>
			</g>
			<g>
				<g>
					<g>
						<path class="st13" d="M419.3,738.59c14.19-42.51-59.5-184.58-59.5-184.58s-96.68-164.08-118.63-98.89        c-21.95,65.19,73.23,231.6,82.53,243.96c9.3,12.36,6.24,23.76,6.24,23.76c-54.39,34.78-102.58,158.83-102.58,158.83        c11.14,10.97,13.89,13.99,13.89,13.99C266.36,857.61,405.11,781.1,419.3,738.59z"/>
						<path class="st14" d="M241.38,897.25l-0.86-0.94c-0.03-0.03-2.88-3.16-13.85-13.95l-0.47-0.47l0.23-0.6        c0.48-1.24,48.74-124.24,102.63-159.07c0.39-1.95,1.85-11.95-6.14-22.57c-7.47-9.93-104.88-178.94-82.68-244.87        c3.36-9.97,8.7-15.33,15.87-15.9c34.9-2.8,101.7,109.85,104.52,114.65c3.05,5.86,73.76,142.99,59.6,185.39l0,0        c-8.06,24.13-54.69,58.29-99.79,91.33c-34.69,25.41-67.45,49.41-78.38,65.97L241.38,897.25z M290.84,461.54        c-12.73-12.82-25-21.47-34.51-20.71c-6.35,0.51-11.13,5.43-14.23,14.62c-21.96,65.24,74.95,233.17,82.37,243.05        c9.48,12.61,6.54,24.13,6.41,24.62l-0.09,0.36l-0.31,0.2c-51.57,32.98-98.24,148.37-101.97,157.78        c7.59,7.48,11.14,11.13,12.59,12.65c11.74-16.79,44.02-40.44,78.16-65.44c44.86-32.86,91.25-66.84,99.11-90.4l0,0        c13.9-41.63-58.71-182.4-59.44-183.81C358.46,553.64,323.17,494.12,290.84,461.54z"/>
					</g>
				</g>
			</g>
			<g>
				<g>
					<g>
						<path class="st13" d="M224.27,482.55c-53.86,57.97-9.35,162.3,0.58,181.87c15.29,30.14,6.49,58.39,6.49,58.39        c-39.83,114.9,9.88,214.38,9.88,214.38c6.42,9.19,12.38,3.68,12.38,3.68c6.1-63.34,48.85-198.27,71.19-281.05        c20.39-75.56-1.57-162.64-4.73-176.19L224.27,482.55z"/>
						<path class="st14" d="M319.22,483.64c3.08,12.15,24.65,101.9,4.67,175.95c-5.66,20.97-12.61,45.24-19.98,70.94        c-21.82,76.14-46.54,162.41-51.2,209.87c-0.59,0.43-2.15,1.38-4.15,1.15c-2.27-0.26-4.48-1.89-6.5-4.77        c-0.5-0.99-49.07-100.46-9.82-213.68c0.09-0.29,8.73-28.96-6.55-59.09c-9.82-19.37-52.13-127.23-1.29-181.57l-2.29-0.12        c-50.36,65.1-7.97,163.03,1.92,182.53c14.93,29.44,6.52,57.42,6.44,57.67c-39.5,113.95,9.43,214.1,10,215.22        c0.69,0.99,1.4,1.84,2.12,2.58c1.83,1.84,3.77,2.88,5.8,3.1c3.41,0.37,5.75-1.75,5.84-1.84l0.26-0.24l0.03-0.35        c4.54-47.21,29.32-133.66,51.18-209.93c7.37-25.7,14.32-49.98,19.99-70.97c20.09-74.46-1.25-161.62-4.68-176.43H319.22z"/>
					</g>
				</g>
			</g>
			<g>
				<g>
					<path class="st12" d="M270.36,956.11c-13.94-6.99-18.18-21.86-18.18-21.86c-7.58,2.83-12.42,3.52-12.42,3.52       c-3.57,3.45-12.19,26.32-11.4,29.63c0.8,3.31,12.03,1.48,12.03,1.48s-0.55-8.88,6.13-2.41c6.68,6.47,53.94,5.02,61.92,4.03       C316.44,969.53,284.29,963.1,270.36,956.11z"/>
				</g>
			</g>
			<g>
				<g>
					<path class="st10" d="M310.84,268.22c-20.57-4.03-41.6-6.14-62.56-5.1c-2.35,0.12-4.71,0.27-7.06,0.47       c-19.87,1.67-46.78,4.68-60.9,19.69c-10.87,11.55-17.36,28.4-15.26,44.34c2.11,15.97,19.41,23.45,24.66,38.99       c12.47,36.93,22.05,121.12,24.15,126.57c0,0,55.72,43,99.86,1.58c4.34-4.08,12.9-32.86,14.98-39.25       c3.49-10.7,7-21.4,10.34-32.15c6.87-22.15,13.14-44.55,17.07-67.43c3.22-18.72,10.25-50.41,3.15-68.73       C353.4,271.99,325.2,271.04,310.84,268.22z"/>
				</g>
			</g>
			<path class="st10" d="M348.62,281.15c0,0-35.8,13.98-5.62,90.85c30.18,76.86,60.65,77.05,60.65,77.05s2.92-10.86-12.58-88.17     C375.58,283.56,348.62,281.15,348.62,281.15z"/>
			<g>
				<g>
					<path class="st10" d="M437.27,244.94c0.03,0.03-0.07,0.24-0.08,0.25c-13.97,33.33-20.9,66.6-35.19,99.81       c-8.34,19.37-14.17,37.04-21,57c-7.71,22.51-2.05,43.35,19.54,46.53c17.33,2.55,22.87-12.19,29.46-27.53       c21.8-50.72,21.56-172.82,21.56-172.82C444.55,250.07,437.27,244.94,437.27,244.94z"/>
				</g>
			</g>
			<path class="st15" d="M453.45,270.5l12.12-4.28c3.34-1.18,5.09-4.84,3.91-8.19l-22.85-64.72c-1.18-3.34-4.85-5.09-8.19-3.91     l-12.12,4.28c-3.34,1.18-5.09,4.84-3.91,8.19l22.85,64.72C446.44,269.93,450.11,271.68,453.45,270.5z"/>
			<g>
				<g>
					<path class="st16" d="M457.69,217.96c-10.39-6.38-15.15,17.89-6.68,24.08C468.03,254.51,469.96,225.51,457.69,217.96z"/>
				</g>
			</g>
			<g>
				<g>
					<path class="st16" d="M434.97,237.5c-0.56-2.9-2.12-7.83,0.16-10.22c1.29-1.36,3.08-2.25,4.14-3.8c1.06-1.55,0.83-4.25-1-4.68       c-0.63-0.15-1.28,0.02-1.89,0.22c-11.86,3.91-8.67,15.41-4.04,24.16c0.6,1.13,1.29,2.27,2.35,2.98       c0.78,0.53,1.63,0.72,2.51,0.43C437.41,243.73,435.54,240.44,434.97,237.5z"/>
				</g>
			</g>
			<polygon class="st6" points="484.21,189.02 563.09,203.78 513.85,56.28 459.99,120.39    "/>
			
				<rect x="410.64" y="128.86" transform="matrix(-0.9428 0.3333 -0.3333 -0.9428 914.3342 173.6214)" class="st15" width="63.27" height="72.78"/>
			
				<rect x="403.13" y="141" transform="matrix(-0.9428 0.3334 -0.3334 -0.9428 851.6541 208.6506)" class="st17" width="9.59" height="72.78"/>
			
				<rect x="390.37" y="159.63" transform="matrix(-0.9428 0.3334 -0.3334 -0.9428 831.8596 219.7173)" class="st6" width="13.42" height="43.18"/>
			<g>
				<path class="st16" d="M280.88,177.29c-10.17-8.49-23.65-4.93-34.61,0.02c-13.35,6.02-21.17,19.49-18.83,34.09      c0,0-7.45-4.76-7.03,12.31c0.42,17.06,13.85,20.04,18.55,18.65c0,0,4.69,14.59,13.9,20.21l5.78,19.47      c23.02,7.1,31.16-9.26,31.16-9.26l-4.17-14.04c1.69-0.88,3.31-1.8,4.74-2.74c8.23-5.42,7.95-20.16,8.17-28.87      c0.03-1.23,0.04-2.46,0.01-3.69c-0.24-11.25-2.88-22.46-7.8-32.59C288.29,185.78,285.2,180.9,280.88,177.29z"/>
			</g>
			<g>
				<path class="st17" d="M304.48,207.59c0,0-4.77,8.74-7,2.28c-3.94-11.37-7.53-11.32-16.3-12.89c-8.77-1.57-12.18-1.22-18.08-5.18      c-5.9-3.96-4.49,10.85-9.6,14c-3.88,2.39-11.89,3.75-18.65,6.76c0.48,6.08,0.92,17.23-2.98,12.15      c-3.31-4.31-6.53-4.91-8.47-4.77c-0.63,0.28-1.22,0.42-1.8,0.41c-0.01,0.01-0.03,0.02-0.03,0.02s-1.26,22.18,17.39,21.98      c0,0,2.73,7,4.45,9.7c0,0-10.15,4.65-21.97-18.32c-11.08-21.52-14.62-43.13-7.74-53.38c2.56-8.14,7.24-13.9,11.38-15.5      c0,0,40.93-28.85,65.93-6.85C322.03,185.31,304.48,207.59,304.48,207.59z"/>
			</g>
		</g>
	</g>
	<g>
		<defs>
			<path id="SVGID_5_" d="M231.73,716.31c0.8,12.64-45.72,281.22,18.37,283.69c55.84,2.15,106.66-58.28,122.46-68.37     c2.34-1.49,2.04-4.08,3.06-5.1c0.08-0.08,0.14,0.19,0.2,0.29c28.39,46.59,81.02,76.27,139.25,72.59     c83.65-5.28,147.17-77.37,141.89-161.01c-5.28-83.64-77.37-311.58-161.01-306.3C412.3,537.37,226.45,632.66,231.73,716.31z"/>
		</defs>
		<clipPath id="SVGID_6_">
			<use xlink:href="#SVGID_5_" style="overflow:visible;"/>
		</clipPath>
		<g class="st18">
			<path class="st15" d="M598.57,761.48c-11.64-22.66,6.65-76.14-20.79-114.2c-24.87-34.5-57.94-29.54-63.92-28.31     c-5.98-1.23-39.05-6.19-63.92,28.31c-27.44,38.07-9.15,91.54-20.79,114.2c-11.64,22.66,21.62,24.47,35.76,27.19     s40.75,26.28,46.57-13.6c1.04-7.1,1.81-16.62,2.38-27.47c0.57,10.84,1.34,20.37,2.38,27.47c5.82,39.88,32.43,16.31,46.57,13.6     S610.22,784.14,598.57,761.48z"/>
			<rect x="496.75" y="763.66" class="st16" width="33.57" height="76.74"/>
			<path class="st19" d="M496.75,771.69v23.86c0,0,22.97-15.03,33.57-11.93v-13.58L496.75,771.69z"/>
			<circle class="st20" cx="566.98" cy="707.69" r="11.67"/>
			<circle class="st20" cx="464.17" cy="715.69" r="11.67"/>
			<path class="st16" d="M567,714c0,42.71-23.47,67-53,67c-29.53,0-54-40.29-54-83s24.01-71.63,53.54-71.63     C543.06,626.37,567,671.29,567,714z"/>
			<path class="st15" d="M536.53,672.96c0,0-50.14,42.97-86.74,37.52s25.34-90.77,52.51-87.51c27.17,3.26,53.79,6.52,67.92,51.62     C570.22,674.59,561.52,644.7,536.53,672.96z"/>
			<path class="st15" d="M542.63,666.92c0,0,11.09,26.43,27.22,30.37s-1.85-36.82-11.1-47.48     C549.5,639.14,542.63,666.92,542.63,666.92z"/>
			<path class="st16" d="M302.82,752.55c0,0-19.1-58.27-13-60.31s10.75,20.29,10.75,20.29s-14.82-30.75-9.01-31.04     c5.81-0.29,13.95,28.77,13.95,28.77s-15.4-38.07-11.34-40.39c1.08-0.62,2.84,1.76,4.84,5.59c5.53,10.58,12.89,32.23,12.89,32.23     s-12.5-33.47-10.46-34.63c2.03-1.16,21.8,29.07,22.96,43.31s6.69-16.28,11.92-16.86c5.23-0.58-3.49,35.46-3.49,35.46l-3.89,22.97     l-15.64,24.98h-10.12L302.82,752.55z"/>
			<path class="st17" d="M415.68,840.4c0,0,39.22-31.33,81.08-30.29c0,0,6.3,15.16,16.79,15.13c10.49-0.03,16.79-15.16,16.79-15.16     s43.71,1.59,69.75,19.82c26.05,18.23,126.58,158.35,126.58,158.35h-80.74l-57.82-95.33c0,0,18.81,39.4,14.06,72.37     c-1.61,11.17-8.16,20.41-8.16,20.41l-79.6,46.94L431.82,990c0,0-26.57-53.16-4.17-89.96c0,0-123.45,67.9-170.86,49.14     c-47.4-18.75,42.19-197.42,42.19-197.42l32.82,6.77c0,0-52.61,128.66-35.94,134.39C312.54,898.66,415.68,840.4,415.68,840.4z"/>
		</g>
	</g>
	<g>
		<path class="st15" d="M724.54,223.01H591.01c-4.55,0-8.24,3.69-8.24,8.24v70.27c0,4.55,3.69,8.24,8.24,8.24h89.18l27.09,17.35    v-17.35h17.28c4.55,0,8.24-3.69,8.24-8.24v-70.27C732.78,226.7,729.09,223.01,724.54,223.01z"/>
		<line class="st21" x1="606.24" y1="248.52" x2="710.33" y2="248.52"/>
		<line class="st21" x1="606.24" y1="264.85" x2="710.33" y2="264.85"/>
		<line class="st21" x1="606.24" y1="281.18" x2="710.33" y2="281.18"/>
	</g>
	<g>
		<g>
			<path class="st10" d="M685.55,679.32h133.54c4.55,0,8.24,3.69,8.24,8.24v70.27c0,4.55-3.69,8.24-8.24,8.24h-89.18l-27.09,17.35     v-17.35h-17.28c-4.55,0-8.24-3.69-8.24-8.24v-70.27C677.31,683.01,681,679.32,685.55,679.32z"/>
		</g>
		<g>
			<path class="st13" d="M699.76,706.83h104.09c1.1,0,2-0.9,2-2s-0.9-2-2-2H699.76c-1.1,0-2,0.9-2,2S698.66,706.83,699.76,706.83z"/>
		</g>
		<g>
			<path class="st13" d="M699.76,723.16h104.09c1.1,0,2-0.9,2-2s-0.9-2-2-2H699.76c-1.1,0-2,0.9-2,2S698.66,723.16,699.76,723.16z"/>
		</g>
		<g>
			<path class="st13" d="M699.76,739.49h104.09c1.1,0,2-0.9,2-2s-0.9-2-2-2H699.76c-1.1,0-2,0.9-2,2S698.66,739.49,699.76,739.49z"/>
		</g>
	</g>
</g>
</svg>