<svg xmlns="http://www.w3.org/2000/svg" xmlns:xlink="http://www.w3.org/1999/xlink" version="1.1" id="Layer_2" x="0px" y="0px" viewBox="0 0 500 500" style="enable-background:new 0 0 500 500;" xml:space="preserve">
<style type="text/css">
	.st0{fill:#2A94F4;}
	.st1{fill:#FFBE55;}
</style>
<g>
	<g>
		<g>
			<path class="st0" d="M310.53,500H70.4c-14.17,0-25.7-11.53-25.7-25.7V25.7C44.7,11.53,56.23,0,70.4,0h240.13     c14.17,0,25.7,11.53,25.7,25.7v88.51h-9.82V25.7c0-8.75-7.12-15.87-15.87-15.87H70.4c-8.75,0-15.87,7.12-15.87,15.87V474.3     c0,8.75,7.12,15.87,15.87,15.87h240.13c8.75,0,15.87-7.12,15.87-15.87V307.4h9.82V474.3C336.22,488.47,324.7,500,310.53,500z"/>
		</g>
	</g>
	<g>
		<g>
			<rect x="34.85" y="94.11" class="st0" width="9.82" height="40.21"/>
		</g>
	</g>
	<g>
		<g>
			<rect x="34.85" y="149.13" class="st0" width="9.82" height="40.21"/>
		</g>
	</g>
	<g>
		<g>
			<rect x="157.58" y="24.17" class="st1" width="50.72" height="4.91"/>
		</g>
	</g>
	<g>
		<g>
			<path class="st1" d="M190.46,458.77c-12.64,0-22.93-10.28-22.93-22.93s10.28-22.93,22.93-22.93s22.93,10.29,22.93,22.93     S203.11,458.77,190.46,458.77z M190.46,417.81c-9.93,0-18.02,8.08-18.02,18.02c0,9.93,8.08,18.02,18.02,18.02     c9.94,0,18.02-8.08,18.02-18.02C208.48,425.9,200.4,417.81,190.46,417.81z"/>
		</g>
	</g>
	<g>
		<g>
			<path class="st0" d="M243.98,53.26H136.95c-6.22,0-11.27-5.06-11.27-11.27V4.91h9.82v37.07c0,0.8,0.65,1.45,1.45,1.45h107.03     c0.8,0,1.45-0.65,1.45-1.45V4.91h9.82v37.07C255.25,48.2,250.19,53.26,243.98,53.26z"/>
		</g>
	</g>
	<g>
		<g>
			<rect x="216.52" y="24.17" class="st1" width="6.83" height="4.91"/>
		</g>
	</g>
	<g>
		<g>
			<path class="st1" d="M250.19,389.06v-86.92c-34.94-16.91-57.34-52.42-57.34-91.33c0-55.97,45.53-101.5,101.5-101.5h69.29     c55.97,0,101.5,45.53,101.5,101.5s-45.53,101.5-101.5,101.5h-36.7L250.19,389.06z M294.36,119.12     c-50.55,0-91.68,41.13-91.68,91.68c0,36.11,21.37,68.98,54.43,83.72l2.91,1.3v69.52l62.86-62.85h40.77     c50.55,0,91.68-41.13,91.68-91.68s-41.13-91.68-91.68-91.68H294.36z M387.12,230.17c-11.69,0-21.2-9.51-21.2-21.2     c0-11.69,9.51-21.2,21.2-21.2s21.2,9.51,21.2,21.2C408.32,220.66,398.81,230.17,387.12,230.17z M387.12,197.6     c-6.27,0-11.38,5.1-11.38,11.37s5.1,11.37,11.38,11.37c6.27,0,11.37-5.1,11.37-11.37S393.39,197.6,387.12,197.6z M331.05,230.17     c-11.69,0-21.2-9.51-21.2-21.2c0-11.69,9.51-21.2,21.2-21.2c11.69,0,21.2,9.51,21.2,21.2     C352.25,220.66,342.74,230.17,331.05,230.17z M331.05,197.6c-6.27,0-11.37,5.1-11.37,11.37s5.1,11.37,11.37,11.37     c6.27,0,11.37-5.1,11.37-11.37S337.32,197.6,331.05,197.6z M274.98,230.17c-11.69,0-21.2-9.51-21.2-21.2     c0-11.69,9.51-21.2,21.2-21.2c11.69,0,21.2,9.51,21.2,21.2C296.18,220.66,286.67,230.17,274.98,230.17z M274.98,197.6     c-6.27,0-11.37,5.1-11.37,11.37s5.1,11.37,11.37,11.37c6.27,0,11.38-5.1,11.38-11.37S281.25,197.6,274.98,197.6z"/>
		</g>
	</g>
</g>
</svg>